<?xml version="1.0" encoding="UTF-8" standalone="no"?>
<!DOCTYPE svg PUBLIC "-//W3C//DTD SVG 1.1//EN"
 "http://www.w3.org/Graphics/SVG/1.1/DTD/svg11.dtd">
<!-- Generated by graphviz version 2.43.0 (0)
 -->
<!-- Title: Ogre::ResourceManager Pages: 1 -->
<svg width="670pt" height="389pt"
 viewBox="0.00 0.00 670.00 389.00" xmlns="http://www.w3.org/2000/svg" xmlns:xlink="http://www.w3.org/1999/xlink">
<g id="graph0" class="graph" transform="scale(1 1) rotate(0) translate(4 385)">
<title>Ogre::ResourceManager</title>
<!-- Node1 -->
<g id="node1" class="node">
<title>Node1</title>
<g id="a_node1"><a xlink:title="Defines a generic resource handler.">
<polygon fill="#bfbfbf" stroke="black" points="143,-247.5 143,-266.5 277,-266.5 277,-247.5 143,-247.5"/>
<text text-anchor="middle" x="210" y="-254.5" font-family="Helvetica,sans-Serif" font-size="10.00">Ogre::ResourceManager</text>
</a>
</g>
</g>
<!-- Node4 -->
<g id="node4" class="node">
<title>Node4</title>
<g id="a_node4"><a xlink:href="class_ogre_1_1_compositor_manager.html" target="_top" xlink:title="Class for managing Compositor settings for Ogre.">
<polygon fill="none" stroke="black" points="315,-361.5 315,-380.5 460,-380.5 460,-361.5 315,-361.5"/>
<text text-anchor="middle" x="387.5" y="-368.5" font-family="Helvetica,sans-Serif" font-size="10.00">Ogre::CompositorManager</text>
</a>
</g>
</g>
<!-- Node1&#45;&gt;Node4 -->
<g id="edge3" class="edge">
<title>Node1&#45;&gt;Node4</title>
<path fill="none" stroke="midnightblue" d="M225.14,-274.74C243.24,-296.24 276.63,-332.06 313,-352 320.05,-355.86 327.91,-358.97 335.8,-361.45"/>
<polygon fill="midnightblue" stroke="midnightblue" points="227.62,-272.25 218.57,-266.75 222.22,-276.69 227.62,-272.25"/>
</g>
<!-- Node5 -->
<g id="node5" class="node">
<title>Node5</title>
<g id="a_node5"><a xlink:href="class_ogre_1_1_font_manager.html" target="_top" xlink:title="Manages Font resources, parsing .fontdef files and generally organising them.">
<polygon fill="none" stroke="black" points="332.5,-323.5 332.5,-342.5 442.5,-342.5 442.5,-323.5 332.5,-323.5"/>
<text text-anchor="middle" x="387.5" y="-330.5" font-family="Helvetica,sans-Serif" font-size="10.00">Ogre::FontManager</text>
</a>
</g>
</g>
<!-- Node1&#45;&gt;Node5 -->
<g id="edge4" class="edge">
<title>Node1&#45;&gt;Node5</title>
<path fill="none" stroke="midnightblue" d="M233.75,-271.96C253.88,-284.64 284.43,-302.54 313,-314 322.18,-317.68 332.28,-320.83 341.99,-323.45"/>
<polygon fill="midnightblue" stroke="midnightblue" points="235.59,-268.98 225.28,-266.54 231.82,-274.88 235.59,-268.98"/>
</g>
<!-- Node6 -->
<g id="node6" class="node">
<title>Node6</title>
<g id="a_node6"><a xlink:href="class_ogre_1_1_gpu_program_manager.html" target="_top" xlink:title="This ResourceManager manages GPU shader programs.">
<polygon fill="none" stroke="black" points="313,-285.5 313,-304.5 462,-304.5 462,-285.5 313,-285.5"/>
<text text-anchor="middle" x="387.5" y="-292.5" font-family="Helvetica,sans-Serif" font-size="10.00">Ogre::GpuProgramManager</text>
</a>
</g>
</g>
<!-- Node1&#45;&gt;Node6 -->
<g id="edge5" class="edge">
<title>Node1&#45;&gt;Node6</title>
<path fill="none" stroke="midnightblue" d="M265.28,-268.75C290.09,-274.13 319.11,-280.41 342.53,-285.48"/>
<polygon fill="midnightblue" stroke="midnightblue" points="265.8,-265.28 255.29,-266.59 264.32,-272.13 265.8,-265.28"/>
</g>
<!-- Node7 -->
<g id="node7" class="node">
<title>Node7</title>
<g id="a_node7"><a xlink:href="class_ogre_1_1_material_manager.html" target="_top" xlink:title="Class for managing Material settings for Ogre.">
<polygon fill="none" stroke="black" points="323,-247.5 323,-266.5 452,-266.5 452,-247.5 323,-247.5"/>
<text text-anchor="middle" x="387.5" y="-254.5" font-family="Helvetica,sans-Serif" font-size="10.00">Ogre::MaterialManager</text>
</a>
</g>
</g>
<!-- Node1&#45;&gt;Node7 -->
<g id="edge6" class="edge">
<title>Node1&#45;&gt;Node7</title>
<path fill="none" stroke="midnightblue" d="M287.62,-257C299.42,-257 311.49,-257 322.96,-257"/>
<polygon fill="midnightblue" stroke="midnightblue" points="287.35,-253.5 277.35,-257 287.35,-260.5 287.35,-253.5"/>
</g>
<!-- Node8 -->
<g id="node8" class="node">
<title>Node8</title>
<g id="a_node8"><a xlink:href="class_ogre_1_1_mesh_manager.html" target="_top" xlink:title="Handles the management of mesh resources.">
<polygon fill="none" stroke="black" points="330,-209.5 330,-228.5 445,-228.5 445,-209.5 330,-209.5"/>
<text text-anchor="middle" x="387.5" y="-216.5" font-family="Helvetica,sans-Serif" font-size="10.00">Ogre::MeshManager</text>
</a>
</g>
</g>
<!-- Node1&#45;&gt;Node8 -->
<g id="edge7" class="edge">
<title>Node1&#45;&gt;Node8</title>
<path fill="none" stroke="midnightblue" d="M265.28,-245.25C290.09,-239.87 319.11,-233.59 342.53,-228.52"/>
<polygon fill="midnightblue" stroke="midnightblue" points="264.32,-241.87 255.29,-247.41 265.8,-248.72 264.32,-241.87"/>
</g>
<!-- Node9 -->
<g id="node9" class="node">
<title>Node9</title>
<g id="a_node9"><a xlink:href="class_ogre_1_1_skeleton_manager.html" target="_top" xlink:title="Handles the management of skeleton resources.">
<polygon fill="none" stroke="black" points="322,-171.5 322,-190.5 453,-190.5 453,-171.5 322,-171.5"/>
<text text-anchor="middle" x="387.5" y="-178.5" font-family="Helvetica,sans-Serif" font-size="10.00">Ogre::SkeletonManager</text>
</a>
</g>
</g>
<!-- Node1&#45;&gt;Node9 -->
<g id="edge8" class="edge">
<title>Node1&#45;&gt;Node9</title>
<path fill="none" stroke="midnightblue" d="M233.75,-242.04C253.88,-229.36 284.43,-211.46 313,-200 322.18,-196.32 332.28,-193.17 341.99,-190.55"/>
<polygon fill="midnightblue" stroke="midnightblue" points="231.82,-239.12 225.28,-247.46 235.59,-245.02 231.82,-239.12"/>
</g>
<!-- Node10 -->
<g id="node10" class="node">
<title>Node10</title>
<g id="a_node10"><a xlink:href="class_ogre_1_1_texture_manager.html" target="_top" xlink:title="Class for loading &amp; managing textures.">
<polygon fill="none" stroke="black" points="325,-133.5 325,-152.5 450,-152.5 450,-133.5 325,-133.5"/>
<text text-anchor="middle" x="387.5" y="-140.5" font-family="Helvetica,sans-Serif" font-size="10.00">Ogre::TextureManager</text>
</a>
</g>
</g>
<!-- Node1&#45;&gt;Node10 -->
<g id="edge9" class="edge">
<title>Node1&#45;&gt;Node10</title>
<path fill="none" stroke="midnightblue" d="M225.14,-239.26C243.24,-217.76 276.63,-181.94 313,-162 320.05,-158.14 327.91,-155.03 335.8,-152.55"/>
<polygon fill="midnightblue" stroke="midnightblue" points="222.22,-237.31 218.57,-247.25 227.62,-241.75 222.22,-237.31"/>
</g>
<!-- Node2 -->
<g id="node2" class="node">
<title>Node2</title>
<g id="a_node2"><a xlink:href="class_ogre_1_1_script_loader.html" target="_top" xlink:title="Abstract class defining the interface used by classes which wish to perform script loading to define ...">
<polygon fill="none" stroke="black" points="0,-266.5 0,-285.5 107,-285.5 107,-266.5 0,-266.5"/>
<text text-anchor="middle" x="53.5" y="-273.5" font-family="Helvetica,sans-Serif" font-size="10.00">Ogre::ScriptLoader</text>
</a>
</g>
</g>
<!-- Node2&#45;&gt;Node1 -->
<g id="edge1" class="edge">
<title>Node2&#45;&gt;Node1</title>
<path fill="none" stroke="midnightblue" d="M117.34,-268.27C125.74,-267.24 134.38,-266.18 142.84,-265.14"/>
<polygon fill="midnightblue" stroke="midnightblue" points="116.74,-264.82 107.24,-269.51 117.59,-271.77 116.74,-264.82"/>
</g>
<!-- Node3 -->
<g id="node3" class="node">
<title>Node3</title>
<g id="a_node3"><a xlink:title=" ">
<polygon fill="none" stroke="#bfbfbf" points="10.5,-228.5 10.5,-247.5 96.5,-247.5 96.5,-228.5 10.5,-228.5"/>
<text text-anchor="middle" x="53.5" y="-235.5" font-family="Helvetica,sans-Serif" font-size="10.00">ResourceAlloc</text>
</a>
</g>
</g>
<!-- Node3&#45;&gt;Node1 -->
<g id="edge2" class="edge">
<title>Node3&#45;&gt;Node1</title>
<path fill="none" stroke="midnightblue" d="M106.65,-244.41C118.24,-245.84 130.67,-247.37 142.74,-248.85"/>
<polygon fill="midnightblue" stroke="midnightblue" points="107.07,-240.94 96.72,-243.19 106.22,-247.89 107.07,-240.94"/>
</g>
<!-- Node11 -->
<g id="node11" class="node">
<title>Node11</title>
<g id="a_node11"><a xlink:href="class_ogre_1_1_d3_d11_texture_manager.html" target="_top" xlink:title=" ">
<polygon fill="none" stroke="black" points="501,-266.5 501,-285.5 659,-285.5 659,-266.5 501,-266.5"/>
<text text-anchor="middle" x="580" y="-273.5" font-family="Helvetica,sans-Serif" font-size="10.00">Ogre::D3D11TextureManager</text>
</a>
</g>
</g>
<!-- Node10&#45;&gt;Node11 -->
<g id="edge10" class="edge">
<title>Node10&#45;&gt;Node11</title>
<path fill="none" stroke="midnightblue" d="M456.42,-157.65C458.38,-158.98 460.25,-160.43 462,-162 495.62,-192.14 464.04,-227.24 498,-257 502.35,-260.81 507.31,-263.89 512.6,-266.38"/>
<polygon fill="midnightblue" stroke="midnightblue" points="457.78,-154.4 447.35,-152.55 454.35,-160.5 457.78,-154.4"/>
</g>
<!-- Node12 -->
<g id="node12" class="node">
<title>Node12</title>
<g id="a_node12"><a xlink:href="class_ogre_1_1_d3_d9_texture_manager.html" target="_top" xlink:title=" ">
<polygon fill="none" stroke="black" points="504,-228.5 504,-247.5 656,-247.5 656,-228.5 504,-228.5"/>
<text text-anchor="middle" x="580" y="-235.5" font-family="Helvetica,sans-Serif" font-size="10.00">Ogre::D3D9TextureManager</text>
</a>
</g>
</g>
<!-- Node10&#45;&gt;Node12 -->
<g id="edge11" class="edge">
<title>Node10&#45;&gt;Node12</title>
<path fill="none" stroke="midnightblue" d="M453.53,-156.75C456.49,-158.31 459.34,-160.06 462,-162 486.21,-179.66 473.6,-201.62 498,-219 503.41,-222.85 509.49,-225.94 515.83,-228.4"/>
<polygon fill="midnightblue" stroke="midnightblue" points="454.89,-153.52 444.34,-152.56 451.99,-159.89 454.89,-153.52"/>
</g>
<!-- Node13 -->
<g id="node13" class="node">
<title>Node13</title>
<g id="a_node13"><a xlink:href="class_ogre_1_1_default_texture_manager.html" target="_top" xlink:title="Specialisation of TextureManager for offline processing. Cannot be used with an active RenderSystem.">
<polygon fill="none" stroke="black" points="499.5,-190.5 499.5,-209.5 660.5,-209.5 660.5,-190.5 499.5,-190.5"/>
<text text-anchor="middle" x="580" y="-197.5" font-family="Helvetica,sans-Serif" font-size="10.00">Ogre::DefaultTextureManager</text>
</a>
</g>
</g>
<!-- Node10&#45;&gt;Node13 -->
<g id="edge12" class="edge">
<title>Node10&#45;&gt;Node13</title>
<path fill="none" stroke="midnightblue" d="M442.06,-155.28C448.85,-157.3 455.64,-159.54 462,-162 478.87,-168.53 481.06,-174.66 498,-181 507.88,-184.69 518.71,-187.83 529.14,-190.42"/>
<polygon fill="midnightblue" stroke="midnightblue" points="442.74,-151.84 432.17,-152.5 440.85,-158.58 442.74,-151.84"/>
</g>
<!-- Node14 -->
<g id="node14" class="node">
<title>Node14</title>
<g id="a_node14"><a xlink:href="class_ogre_1_1_g_l3_plus_texture_manager.html" target="_top" xlink:title="GL3Plus&#45;specific implementation of a TextureManager.">
<polygon fill="none" stroke="black" points="498,-152.5 498,-171.5 662,-171.5 662,-152.5 498,-152.5"/>
<text text-anchor="middle" x="580" y="-159.5" font-family="Helvetica,sans-Serif" font-size="10.00">Ogre::GL3PlusTextureManager</text>
</a>
</g>
</g>
<!-- Node10&#45;&gt;Node14 -->
<g id="edge13" class="edge">
<title>Node10&#45;&gt;Node14</title>
<path fill="none" stroke="midnightblue" d="M460.24,-150.16C472.51,-151.38 485.34,-152.66 497.83,-153.9"/>
<polygon fill="midnightblue" stroke="midnightblue" points="460.38,-146.65 450.09,-149.14 459.69,-153.62 460.38,-146.65"/>
</g>
<!-- Node15 -->
<g id="node15" class="node">
<title>Node15</title>
<g id="a_node15"><a xlink:href="class_ogre_1_1_g_l_e_s2_texture_manager.html" target="_top" xlink:title="GL ES&#45;specific implementation of a TextureManager.">
<polygon fill="none" stroke="black" points="502.5,-114.5 502.5,-133.5 657.5,-133.5 657.5,-114.5 502.5,-114.5"/>
<text text-anchor="middle" x="580" y="-121.5" font-family="Helvetica,sans-Serif" font-size="10.00">Ogre::GLES2TextureManager</text>
</a>
</g>
</g>
<!-- Node10&#45;&gt;Node15 -->
<g id="edge14" class="edge">
<title>Node10&#45;&gt;Node15</title>
<path fill="none" stroke="midnightblue" d="M460.4,-135.83C474.08,-134.46 488.45,-133.03 502.27,-131.65"/>
<polygon fill="midnightblue" stroke="midnightblue" points="459.69,-132.38 450.09,-136.86 460.38,-139.35 459.69,-132.38"/>
</g>
<!-- Node16 -->
<g id="node16" class="node">
<title>Node16</title>
<g id="a_node16"><a xlink:href="class_ogre_1_1_g_l_texture_manager.html" target="_top" xlink:title="GL&#45;specific implementation of a TextureManager.">
<polygon fill="none" stroke="black" points="511.5,-76.5 511.5,-95.5 648.5,-95.5 648.5,-76.5 511.5,-76.5"/>
<text text-anchor="middle" x="580" y="-83.5" font-family="Helvetica,sans-Serif" font-size="10.00">Ogre::GLTextureManager</text>
</a>
</g>
</g>
<!-- Node10&#45;&gt;Node16 -->
<g id="edge15" class="edge">
<title>Node10&#45;&gt;Node16</title>
<path fill="none" stroke="midnightblue" d="M423.11,-129.96C444.51,-122.15 472.64,-112.35 498,-105 509.79,-101.58 522.68,-98.34 534.64,-95.53"/>
<polygon fill="midnightblue" stroke="midnightblue" points="421.66,-126.76 413.49,-133.5 424.08,-133.33 421.66,-126.76"/>
</g>
<!-- Node17 -->
<g id="node17" class="node">
<title>Node17</title>
<g id="a_node17"><a xlink:href="class_ogre_1_1_metal_texture_manager.html" target="_top" xlink:title=" ">
<polygon fill="none" stroke="black" points="504,-38.5 504,-57.5 656,-57.5 656,-38.5 504,-38.5"/>
<text text-anchor="middle" x="580" y="-45.5" font-family="Helvetica,sans-Serif" font-size="10.00">Ogre::MetalTextureManager</text>
</a>
</g>
</g>
<!-- Node10&#45;&gt;Node17 -->
<g id="edge16" class="edge">
<title>Node10&#45;&gt;Node17</title>
<path fill="none" stroke="midnightblue" d="M407.19,-126.7C427.99,-109.39 463.25,-82.46 498,-67 506.58,-63.18 516.02,-60.08 525.34,-57.57"/>
<polygon fill="midnightblue" stroke="midnightblue" points="404.83,-124.11 399.46,-133.25 409.35,-129.45 404.83,-124.11"/>
</g>
<!-- Node18 -->
<g id="node18" class="node">
<title>Node18</title>
<g id="a_node18"><a xlink:href="class_ogre_1_1_tiny_texture_manager.html" target="_top" xlink:title=" ">
<polygon fill="none" stroke="black" points="507.5,-0.5 507.5,-19.5 652.5,-19.5 652.5,-0.5 507.5,-0.5"/>
<text text-anchor="middle" x="580" y="-7.5" font-family="Helvetica,sans-Serif" font-size="10.00">Ogre::TinyTextureManager</text>
</a>
</g>
</g>
<!-- Node10&#45;&gt;Node18 -->
<g id="edge17" class="edge">
<title>Node10&#45;&gt;Node18</title>
<path fill="none" stroke="midnightblue" d="M400.67,-124.87C418.78,-99.37 455.32,-53.32 498,-29 504.78,-25.14 512.3,-22.06 519.95,-19.61"/>
<polygon fill="midnightblue" stroke="midnightblue" points="397.68,-123.05 394.85,-133.26 403.43,-127.04 397.68,-123.05"/>
</g>
</g>
</svg>
