<?xml version="1.0" encoding="UTF-8" standalone="no"?>
<!DOCTYPE svg PUBLIC "-//W3C//DTD SVG 1.1//EN"
 "http://www.w3.org/Graphics/SVG/1.1/DTD/svg11.dtd">
<!-- Generated by graphviz version 2.43.0 (0)
 -->
<!-- Title: Ogre::RTShader::ProgramProcessor Pages: 1 -->
<svg width="567pt" height="137pt"
 viewBox="0.00 0.00 567.00 137.00" xmlns="http://www.w3.org/2000/svg" xmlns:xlink="http://www.w3.org/1999/xlink">
<g id="graph0" class="graph" transform="scale(1 1) rotate(0) translate(4 133)">
<title>Ogre::RTShader::ProgramProcessor</title>
<!-- Node1 -->
<g id="node1" class="node">
<title>Node1</title>
<g id="a_node1"><a xlink:title="A class that provides extra processing services on CPU based programs.">
<polygon fill="#bfbfbf" stroke="black" points="160,-55 160,-74 347,-74 347,-55 160,-55"/>
<text text-anchor="middle" x="253.5" y="-62" font-family="Helvetica,sans-Serif" font-size="10.00">Ogre::RTShader::ProgramProcessor</text>
</a>
</g>
</g>
<!-- Node3 -->
<g id="node3" class="node">
<title>Node3</title>
<g id="a_node3"><a xlink:href="class_ogre_1_1_r_t_shader_1_1_g_l_s_l_e_s_program_processor.html" target="_top" xlink:title="GLSL ES Language program processor class.">
<polygon fill="none" stroke="black" points="383,-98.5 383,-128.5 559,-128.5 559,-98.5 383,-98.5"/>
<text text-anchor="start" x="391" y="-116.5" font-family="Helvetica,sans-Serif" font-size="10.00">Ogre::RTShader::GLSLESProgram</text>
<text text-anchor="middle" x="471" y="-105.5" font-family="Helvetica,sans-Serif" font-size="10.00">Processor</text>
</a>
</g>
</g>
<!-- Node1&#45;&gt;Node3 -->
<g id="edge2" class="edge">
<title>Node1&#45;&gt;Node3</title>
<path fill="none" stroke="midnightblue" d="M306.31,-76.28C335.55,-82.93 372.39,-91.31 403.72,-98.43"/>
<polygon fill="midnightblue" stroke="midnightblue" points="306.83,-72.81 296.31,-74.01 305.28,-79.64 306.83,-72.81"/>
</g>
<!-- Node4 -->
<g id="node4" class="node">
<title>Node4</title>
<g id="a_node4"><a xlink:href="class_ogre_1_1_r_t_shader_1_1_g_l_s_l_program_processor.html" target="_top" xlink:title="GLSL Language program processor class.">
<polygon fill="none" stroke="black" points="389,-49.5 389,-79.5 553,-79.5 553,-49.5 389,-49.5"/>
<text text-anchor="start" x="397" y="-67.5" font-family="Helvetica,sans-Serif" font-size="10.00">Ogre::RTShader::GLSLProgram</text>
<text text-anchor="middle" x="471" y="-56.5" font-family="Helvetica,sans-Serif" font-size="10.00">Processor</text>
</a>
</g>
</g>
<!-- Node1&#45;&gt;Node4 -->
<g id="edge3" class="edge">
<title>Node1&#45;&gt;Node4</title>
<path fill="none" stroke="midnightblue" d="M357.3,-64.5C367.93,-64.5 378.63,-64.5 388.97,-64.5"/>
<polygon fill="midnightblue" stroke="midnightblue" points="357.14,-61 347.14,-64.5 357.14,-68 357.14,-61"/>
</g>
<!-- Node5 -->
<g id="node5" class="node">
<title>Node5</title>
<g id="a_node5"><a xlink:href="class_ogre_1_1_r_t_shader_1_1_h_l_s_l_program_processor.html" target="_top" xlink:title="CG Language program processor class.">
<polygon fill="none" stroke="black" points="389,-0.5 389,-30.5 553,-30.5 553,-0.5 389,-0.5"/>
<text text-anchor="start" x="397" y="-18.5" font-family="Helvetica,sans-Serif" font-size="10.00">Ogre::RTShader::HLSLProgram</text>
<text text-anchor="middle" x="471" y="-7.5" font-family="Helvetica,sans-Serif" font-size="10.00">Processor</text>
</a>
</g>
</g>
<!-- Node1&#45;&gt;Node5 -->
<g id="edge4" class="edge">
<title>Node1&#45;&gt;Node5</title>
<path fill="none" stroke="midnightblue" d="M306.31,-52.72C335.55,-46.07 372.39,-37.69 403.72,-30.57"/>
<polygon fill="midnightblue" stroke="midnightblue" points="305.28,-49.36 296.31,-54.99 306.83,-56.19 305.28,-49.36"/>
</g>
<!-- Node2 -->
<g id="node2" class="node">
<title>Node2</title>
<g id="a_node2"><a xlink:title=" ">
<polygon fill="none" stroke="#bfbfbf" points="0,-55 0,-74 124,-74 124,-55 0,-55"/>
<text text-anchor="middle" x="62" y="-62" font-family="Helvetica,sans-Serif" font-size="10.00">RTShaderSystemAlloc</text>
</a>
</g>
</g>
<!-- Node2&#45;&gt;Node1 -->
<g id="edge1" class="edge">
<title>Node2&#45;&gt;Node1</title>
<path fill="none" stroke="midnightblue" d="M134.12,-64.5C142.54,-64.5 151.22,-64.5 159.88,-64.5"/>
<polygon fill="midnightblue" stroke="midnightblue" points="134,-61 124,-64.5 134,-68 134,-61"/>
</g>
</g>
</svg>
