<?xml version="1.0" encoding="UTF-8" standalone="no"?>
<!DOCTYPE svg PUBLIC "-//W3C//DTD SVG 1.1//EN"
 "http://www.w3.org/Graphics/SVG/1.1/DTD/svg11.dtd">
<!-- Generated by graphviz version 2.43.0 (0)
 -->
<!-- Title: Ogre::HardwareBuffer Pages: 1 -->
<svg width="1035pt" height="454pt"
 viewBox="0.00 0.00 1035.00 453.50" xmlns="http://www.w3.org/2000/svg" xmlns:xlink="http://www.w3.org/1999/xlink">
<g id="graph0" class="graph" transform="scale(1 1) rotate(0) translate(4 449.5)">
<title>Ogre::HardwareBuffer</title>
<!-- Node1 -->
<g id="node1" class="node">
<title>Node1</title>
<g id="a_node1"><a xlink:title="Abstract class defining common features of hardware buffers.">
<polygon fill="#bfbfbf" stroke="black" points="107,-255 107,-274 230,-274 230,-255 107,-255"/>
<text text-anchor="middle" x="168.5" y="-262" font-family="Helvetica,sans-Serif" font-size="10.00">Ogre::HardwareBuffer</text>
</a>
</g>
</g>
<!-- Node3 -->
<g id="node3" class="node">
<title>Node3</title>
<g id="a_node3"><a xlink:href="class_ogre_1_1_d3_d11_hardware_buffer.html" target="_top" xlink:title="Base implementation of a D3D11 buffer, dealing with all the common aspects.">
<polygon fill="none" stroke="black" points="272,-426 272,-445 428,-445 428,-426 272,-426"/>
<text text-anchor="middle" x="350" y="-433" font-family="Helvetica,sans-Serif" font-size="10.00">Ogre::D3D11HardwareBuffer</text>
</a>
</g>
</g>
<!-- Node1&#45;&gt;Node3 -->
<g id="edge2" class="edge">
<title>Node1&#45;&gt;Node3</title>
<path fill="none" stroke="midnightblue" d="M176.19,-283.92C188.53,-316.67 218.06,-382.63 266,-416.5 271.43,-420.34 277.52,-423.41 283.86,-425.88"/>
<polygon fill="midnightblue" stroke="midnightblue" points="179.36,-282.39 172.67,-274.18 172.78,-284.77 179.36,-282.39"/>
</g>
<!-- Node4 -->
<g id="node4" class="node">
<title>Node4</title>
<g id="a_node4"><a xlink:href="class_ogre_1_1_d3_d9_hardware_buffer.html" target="_top" xlink:title="Specialisation of HardwareVertexBuffer for D3D9.">
<polygon fill="none" stroke="black" points="275,-388 275,-407 425,-407 425,-388 275,-388"/>
<text text-anchor="middle" x="350" y="-395" font-family="Helvetica,sans-Serif" font-size="10.00">Ogre::D3D9HardwareBuffer</text>
</a>
</g>
</g>
<!-- Node1&#45;&gt;Node4 -->
<g id="edge3" class="edge">
<title>Node1&#45;&gt;Node4</title>
<path fill="none" stroke="midnightblue" d="M179.88,-283.02C195.24,-308.65 226.52,-354.47 266,-378.5 272.31,-382.34 279.33,-385.41 286.53,-387.86"/>
<polygon fill="midnightblue" stroke="midnightblue" points="182.84,-281.15 174.78,-274.27 176.79,-284.68 182.84,-281.15"/>
</g>
<!-- Node5 -->
<g id="node5" class="node">
<title>Node5</title>
<g id="a_node5"><a xlink:href="class_ogre_1_1_default_hardware_buffer.html" target="_top" xlink:title="Specialisation of HardwareBuffer for emulation.">
<polygon fill="none" stroke="black" points="270.5,-350 270.5,-369 429.5,-369 429.5,-350 270.5,-350"/>
<text text-anchor="middle" x="350" y="-357" font-family="Helvetica,sans-Serif" font-size="10.00">Ogre::DefaultHardwareBuffer</text>
</a>
</g>
</g>
<!-- Node1&#45;&gt;Node5 -->
<g id="edge4" class="edge">
<title>Node1&#45;&gt;Node5</title>
<path fill="none" stroke="midnightblue" d="M186.03,-281.36C204.08,-298.78 234.64,-325.5 266,-340.5 274.13,-344.39 283.11,-347.51 292.05,-349.99"/>
<polygon fill="midnightblue" stroke="midnightblue" points="188.23,-278.61 178.65,-274.08 183.31,-283.59 188.23,-278.61"/>
</g>
<!-- Node6 -->
<g id="node6" class="node">
<title>Node6</title>
<g id="a_node6"><a xlink:href="class_ogre_1_1_g_l3_plus_hardware_buffer.html" target="_top" xlink:title=" ">
<polygon fill="none" stroke="black" points="269,-312 269,-331 431,-331 431,-312 269,-312"/>
<text text-anchor="middle" x="350" y="-319" font-family="Helvetica,sans-Serif" font-size="10.00">Ogre::GL3PlusHardwareBuffer</text>
</a>
</g>
</g>
<!-- Node1&#45;&gt;Node6 -->
<g id="edge5" class="edge">
<title>Node1&#45;&gt;Node6</title>
<path fill="none" stroke="midnightblue" d="M200.24,-277.97C218.99,-285.85 243.59,-295.57 266,-302.5 277.44,-306.04 289.95,-309.24 301.71,-311.96"/>
<polygon fill="midnightblue" stroke="midnightblue" points="201.59,-274.74 191.01,-274.05 198.85,-281.18 201.59,-274.74"/>
</g>
<!-- Node7 -->
<g id="node7" class="node">
<title>Node7</title>
<g id="a_node7"><a xlink:href="class_ogre_1_1_g_l_e_s2_hardware_buffer.html" target="_top" xlink:title=" ">
<polygon fill="none" stroke="black" points="273,-274 273,-293 427,-293 427,-274 273,-274"/>
<text text-anchor="middle" x="350" y="-281" font-family="Helvetica,sans-Serif" font-size="10.00">Ogre::GLES2HardwareBuffer</text>
</a>
</g>
</g>
<!-- Node1&#45;&gt;Node7 -->
<g id="edge6" class="edge">
<title>Node1&#45;&gt;Node7</title>
<path fill="none" stroke="midnightblue" d="M240.33,-272C250.96,-273.12 261.96,-274.29 272.7,-275.42"/>
<polygon fill="midnightblue" stroke="midnightblue" points="240.58,-268.5 230.27,-270.93 239.85,-275.47 240.58,-268.5"/>
</g>
<!-- Node8 -->
<g id="node8" class="node">
<title>Node8</title>
<g id="a_node8"><a xlink:href="class_ogre_1_1_g_l_hardware_vertex_buffer.html" target="_top" xlink:title="Specialisation of HardwareVertexBuffer for OpenGL.">
<polygon fill="none" stroke="black" points="266,-236 266,-255 434,-255 434,-236 266,-236"/>
<text text-anchor="middle" x="350" y="-243" font-family="Helvetica,sans-Serif" font-size="10.00">Ogre::GLHardwareVertexBuffer</text>
</a>
</g>
</g>
<!-- Node1&#45;&gt;Node8 -->
<g id="edge7" class="edge">
<title>Node1&#45;&gt;Node8</title>
<path fill="none" stroke="midnightblue" d="M240.3,-257.01C248.64,-256.12 257.2,-255.22 265.69,-254.32"/>
<polygon fill="midnightblue" stroke="midnightblue" points="239.85,-253.53 230.27,-258.07 240.58,-260.5 239.85,-253.53"/>
</g>
<!-- Node9 -->
<g id="node9" class="node">
<title>Node9</title>
<g id="a_node9"><a xlink:href="class_ogre_1_1_hardware_index_buffer.html" target="_top" xlink:title="Specialisation of HardwareBuffer for vertex index buffers, still abstract.">
<polygon fill="none" stroke="black" points="275,-198 275,-217 425,-217 425,-198 275,-198"/>
<text text-anchor="middle" x="350" y="-205" font-family="Helvetica,sans-Serif" font-size="10.00">Ogre::HardwareIndexBuffer</text>
</a>
</g>
</g>
<!-- Node1&#45;&gt;Node9 -->
<g id="edge8" class="edge">
<title>Node1&#45;&gt;Node9</title>
<path fill="none" stroke="midnightblue" d="M200.24,-251.03C218.99,-243.15 243.59,-233.43 266,-226.5 277.44,-222.96 289.95,-219.76 301.71,-217.04"/>
<polygon fill="midnightblue" stroke="midnightblue" points="198.85,-247.82 191.01,-254.95 201.59,-254.26 198.85,-247.82"/>
</g>
<!-- Node11 -->
<g id="node11" class="node">
<title>Node11</title>
<g id="a_node11"><a xlink:href="class_ogre_1_1_hardware_pixel_buffer.html" target="_top" xlink:title="Specialisation of HardwareBuffer for a pixel buffer.">
<polygon fill="none" stroke="black" points="276.5,-160 276.5,-179 423.5,-179 423.5,-160 276.5,-160"/>
<text text-anchor="middle" x="350" y="-167" font-family="Helvetica,sans-Serif" font-size="10.00">Ogre::HardwarePixelBuffer</text>
</a>
</g>
</g>
<!-- Node1&#45;&gt;Node11 -->
<g id="edge10" class="edge">
<title>Node1&#45;&gt;Node11</title>
<path fill="none" stroke="midnightblue" d="M186.03,-247.64C204.08,-230.22 234.64,-203.5 266,-188.5 274.13,-184.61 283.11,-181.49 292.05,-179.01"/>
<polygon fill="midnightblue" stroke="midnightblue" points="183.31,-245.41 178.65,-254.92 188.23,-250.39 183.31,-245.41"/>
</g>
<!-- Node28 -->
<g id="node28" class="node">
<title>Node28</title>
<g id="a_node28"><a xlink:href="class_ogre_1_1_hardware_vertex_buffer.html" target="_top" xlink:title="Specialisation of HardwareBuffer for a vertex buffer.">
<polygon fill="none" stroke="black" points="272.5,-122 272.5,-141 427.5,-141 427.5,-122 272.5,-122"/>
<text text-anchor="middle" x="350" y="-129" font-family="Helvetica,sans-Serif" font-size="10.00">Ogre::HardwareVertexBuffer</text>
</a>
</g>
</g>
<!-- Node1&#45;&gt;Node28 -->
<g id="edge27" class="edge">
<title>Node1&#45;&gt;Node28</title>
<path fill="none" stroke="midnightblue" d="M179.88,-245.98C195.24,-220.35 226.52,-174.53 266,-150.5 272.31,-146.66 279.33,-143.59 286.53,-141.14"/>
<polygon fill="midnightblue" stroke="midnightblue" points="176.79,-244.32 174.78,-254.73 182.84,-247.85 176.79,-244.32"/>
</g>
<!-- Node30 -->
<g id="node30" class="node">
<title>Node30</title>
<g id="a_node30"><a xlink:href="class_ogre_1_1_metal_hardware_buffer_common.html" target="_top" xlink:title="Common buffer operations for most v1 buffer interfaces used in Metal This implementation treats: Igno...">
<polygon fill="none" stroke="black" points="274.5,-72.5 274.5,-102.5 425.5,-102.5 425.5,-72.5 274.5,-72.5"/>
<text text-anchor="start" x="282.5" y="-90.5" font-family="Helvetica,sans-Serif" font-size="10.00">Ogre::MetalHardwareBuffer</text>
<text text-anchor="middle" x="350" y="-79.5" font-family="Helvetica,sans-Serif" font-size="10.00">Common</text>
</a>
</g>
</g>
<!-- Node1&#45;&gt;Node30 -->
<g id="edge29" class="edge">
<title>Node1&#45;&gt;Node30</title>
<path fill="none" stroke="midnightblue" d="M176.63,-244.96C189.44,-212.56 219.46,-147.8 266,-112.5 271.04,-108.68 276.65,-105.44 282.53,-102.7"/>
<polygon fill="midnightblue" stroke="midnightblue" points="173.24,-244.03 172.94,-254.62 179.78,-246.52 173.24,-244.03"/>
</g>
<!-- Node2 -->
<g id="node2" class="node">
<title>Node2</title>
<g id="a_node2"><a xlink:title=" ">
<polygon fill="none" stroke="#bfbfbf" points="0,-255 0,-274 71,-274 71,-255 0,-255"/>
<text text-anchor="middle" x="35.5" y="-262" font-family="Helvetica,sans-Serif" font-size="10.00">BufferAlloc</text>
</a>
</g>
</g>
<!-- Node2&#45;&gt;Node1 -->
<g id="edge1" class="edge">
<title>Node2&#45;&gt;Node1</title>
<path fill="none" stroke="midnightblue" d="M81.4,-264.5C89.64,-264.5 98.37,-264.5 106.99,-264.5"/>
<polygon fill="midnightblue" stroke="midnightblue" points="81.26,-261 71.26,-264.5 81.26,-268 81.26,-261"/>
</g>
<!-- Node10 -->
<g id="node10" class="node">
<title>Node10</title>
<g id="a_node10"><a xlink:href="class_ogre_1_1_default_hardware_index_buffer.html" target="_top" xlink:title=" ">
<polygon fill="none" stroke="black" points="479,-313.5 479,-343.5 635,-343.5 635,-313.5 479,-313.5"/>
<text text-anchor="start" x="487" y="-331.5" font-family="Helvetica,sans-Serif" font-size="10.00">Ogre::DefaultHardwareIndex</text>
<text text-anchor="middle" x="557" y="-320.5" font-family="Helvetica,sans-Serif" font-size="10.00">Buffer</text>
</a>
</g>
</g>
<!-- Node9&#45;&gt;Node10 -->
<g id="edge9" class="edge">
<title>Node9&#45;&gt;Node10</title>
<path fill="none" stroke="midnightblue" d="M427.48,-221.91C429.76,-223.31 431.94,-224.83 434,-226.5 463.39,-250.23 441.31,-278.93 470,-303.5 474.49,-307.34 479.54,-310.6 484.89,-313.35"/>
<polygon fill="midnightblue" stroke="midnightblue" points="428.8,-218.65 418.32,-217.14 425.57,-224.86 428.8,-218.65"/>
</g>
<!-- Node12 -->
<g id="node12" class="node">
<title>Node12</title>
<g id="a_node12"><a xlink:href="class_ogre_1_1_d3_d11_hardware_pixel_buffer.html" target="_top" xlink:title=" ">
<polygon fill="none" stroke="black" points="482,-264.5 482,-294.5 632,-294.5 632,-264.5 482,-264.5"/>
<text text-anchor="start" x="490" y="-282.5" font-family="Helvetica,sans-Serif" font-size="10.00">Ogre::D3D11HardwarePixel</text>
<text text-anchor="middle" x="557" y="-271.5" font-family="Helvetica,sans-Serif" font-size="10.00">Buffer</text>
</a>
</g>
</g>
<!-- Node11&#45;&gt;Node12 -->
<g id="edge11" class="edge">
<title>Node11&#45;&gt;Node12</title>
<path fill="none" stroke="midnightblue" d="M426.49,-183.58C429.11,-185.07 431.62,-186.7 434,-188.5 460.64,-208.67 443.96,-233.56 470,-254.5 474.85,-258.4 480.28,-261.69 485.99,-264.46"/>
<polygon fill="midnightblue" stroke="midnightblue" points="427.76,-180.31 417.24,-179.1 424.71,-186.61 427.76,-180.31"/>
</g>
<!-- Node13 -->
<g id="node13" class="node">
<title>Node13</title>
<g id="a_node13"><a xlink:href="class_ogre_1_1_d3_d9_hardware_pixel_buffer.html" target="_top" xlink:title=" ">
<polygon fill="none" stroke="black" points="470,-226 470,-245 644,-245 644,-226 470,-226"/>
<text text-anchor="middle" x="557" y="-233" font-family="Helvetica,sans-Serif" font-size="10.00">Ogre::D3D9HardwarePixelBuffer</text>
</a>
</g>
</g>
<!-- Node11&#45;&gt;Node13 -->
<g id="edge12" class="edge">
<title>Node11&#45;&gt;Node13</title>
<path fill="none" stroke="midnightblue" d="M417.22,-181.98C423,-183.87 428.67,-186.03 434,-188.5 452.14,-196.91 451.87,-207.05 470,-215.5 479.31,-219.84 489.64,-223.27 499.81,-225.99"/>
<polygon fill="midnightblue" stroke="midnightblue" points="418.01,-178.56 407.43,-179.05 416.01,-185.27 418.01,-178.56"/>
</g>
<!-- Node14 -->
<g id="node14" class="node">
<title>Node14</title>
<g id="a_node14"><a xlink:href="class_ogre_1_1_g_l_hardware_pixel_buffer_common.html" target="_top" xlink:title=" ">
<polygon fill="none" stroke="black" points="477,-176.5 477,-206.5 637,-206.5 637,-176.5 477,-176.5"/>
<text text-anchor="start" x="485" y="-194.5" font-family="Helvetica,sans-Serif" font-size="10.00">Ogre::GLHardwarePixelBuffer</text>
<text text-anchor="middle" x="557" y="-183.5" font-family="Helvetica,sans-Serif" font-size="10.00">Common</text>
</a>
</g>
</g>
<!-- Node11&#45;&gt;Node14 -->
<g id="edge13" class="edge">
<title>Node11&#45;&gt;Node14</title>
<path fill="none" stroke="midnightblue" d="M433.81,-178.39C448.04,-179.91 462.79,-181.5 476.91,-183.01"/>
<polygon fill="midnightblue" stroke="midnightblue" points="433.88,-174.87 423.56,-177.29 433.13,-181.83 433.88,-174.87"/>
</g>
<!-- Node24 -->
<g id="node24" class="node">
<title>Node24</title>
<g id="a_node24"><a xlink:href="class_ogre_1_1_metal_depth_pixel_buffer.html" target="_top" xlink:title=" ">
<polygon fill="none" stroke="black" points="478.5,-138 478.5,-157 635.5,-157 635.5,-138 478.5,-138"/>
<text text-anchor="middle" x="557" y="-145" font-family="Helvetica,sans-Serif" font-size="10.00">Ogre::MetalDepthPixelBuffer</text>
</a>
</g>
</g>
<!-- Node11&#45;&gt;Node24 -->
<g id="edge23" class="edge">
<title>Node11&#45;&gt;Node24</title>
<path fill="none" stroke="midnightblue" d="M433.66,-160.63C448.41,-159.05 463.72,-157.4 478.32,-155.84"/>
<polygon fill="midnightblue" stroke="midnightblue" points="433.13,-157.17 423.56,-161.71 433.88,-164.13 433.13,-157.17"/>
</g>
<!-- Node25 -->
<g id="node25" class="node">
<title>Node25</title>
<g id="a_node25"><a xlink:href="class_ogre_1_1_metal_hardware_pixel_buffer.html" target="_top" xlink:title=" ">
<polygon fill="none" stroke="black" points="484.5,-88.5 484.5,-118.5 629.5,-118.5 629.5,-88.5 484.5,-88.5"/>
<text text-anchor="start" x="492.5" y="-106.5" font-family="Helvetica,sans-Serif" font-size="10.00">Ogre::MetalHardwarePixel</text>
<text text-anchor="middle" x="557" y="-95.5" font-family="Helvetica,sans-Serif" font-size="10.00">Buffer</text>
</a>
</g>
</g>
<!-- Node11&#45;&gt;Node25 -->
<g id="edge24" class="edge">
<title>Node11&#45;&gt;Node25</title>
<path fill="none" stroke="midnightblue" d="M414.35,-157.26C421.08,-155.29 427.75,-153.05 434,-150.5 451.37,-143.43 452.85,-136.07 470,-128.5 478.39,-124.8 487.48,-121.47 496.51,-118.55"/>
<polygon fill="midnightblue" stroke="midnightblue" points="413.21,-153.94 404.48,-159.94 415.05,-160.69 413.21,-153.94"/>
</g>
<!-- Node27 -->
<g id="node27" class="node">
<title>Node27</title>
<g id="a_node27"><a xlink:href="class_ogre_1_1_tiny_hardware_pixel_buffer.html" target="_top" xlink:title=" ">
<polygon fill="none" stroke="black" points="473.5,-50 473.5,-69 640.5,-69 640.5,-50 473.5,-50"/>
<text text-anchor="middle" x="557" y="-57" font-family="Helvetica,sans-Serif" font-size="10.00">Ogre::TinyHardwarePixelBuffer</text>
</a>
</g>
</g>
<!-- Node11&#45;&gt;Node27 -->
<g id="edge26" class="edge">
<title>Node11&#45;&gt;Node27</title>
<path fill="none" stroke="midnightblue" d="M426.75,-155.42C429.28,-153.93 431.71,-152.3 434,-150.5 462.13,-128.39 441.79,-100.5 470,-78.5 474.94,-74.64 480.51,-71.54 486.37,-69.04"/>
<polygon fill="midnightblue" stroke="midnightblue" points="425.17,-152.3 417.8,-159.91 428.31,-158.55 425.17,-152.3"/>
</g>
<!-- Node15 -->
<g id="node15" class="node">
<title>Node15</title>
<g id="a_node15"><a xlink:href="class_ogre_1_1_g_l3_plus_hardware_pixel_buffer.html" target="_top" xlink:title=" ">
<polygon fill="none" stroke="black" points="682,-243.5 682,-273.5 838,-273.5 838,-243.5 682,-243.5"/>
<text text-anchor="start" x="690" y="-261.5" font-family="Helvetica,sans-Serif" font-size="10.00">Ogre::GL3PlusHardwarePixel</text>
<text text-anchor="middle" x="760" y="-250.5" font-family="Helvetica,sans-Serif" font-size="10.00">Buffer</text>
</a>
</g>
</g>
<!-- Node14&#45;&gt;Node15 -->
<g id="edge14" class="edge">
<title>Node14&#45;&gt;Node15</title>
<path fill="none" stroke="midnightblue" d="M621.45,-209.42C629.07,-211.73 636.73,-214.12 644,-216.5 669.45,-224.84 697.71,-235.14 719.84,-243.46"/>
<polygon fill="midnightblue" stroke="midnightblue" points="622.43,-206.06 611.85,-206.55 620.42,-212.77 622.43,-206.06"/>
</g>
<!-- Node18 -->
<g id="node18" class="node">
<title>Node18</title>
<g id="a_node18"><a xlink:href="class_ogre_1_1_g_l_e_s2_hardware_pixel_buffer.html" target="_top" xlink:title=" ">
<polygon fill="none" stroke="black" points="686,-176.5 686,-206.5 834,-206.5 834,-176.5 686,-176.5"/>
<text text-anchor="start" x="694" y="-194.5" font-family="Helvetica,sans-Serif" font-size="10.00">Ogre::GLES2HardwarePixel</text>
<text text-anchor="middle" x="760" y="-183.5" font-family="Helvetica,sans-Serif" font-size="10.00">Buffer</text>
</a>
</g>
</g>
<!-- Node14&#45;&gt;Node18 -->
<g id="edge17" class="edge">
<title>Node14&#45;&gt;Node18</title>
<path fill="none" stroke="midnightblue" d="M647.39,-191.5C660.24,-191.5 673.33,-191.5 685.81,-191.5"/>
<polygon fill="midnightblue" stroke="midnightblue" points="647.15,-188 637.15,-191.5 647.15,-195 647.15,-188"/>
</g>
<!-- Node21 -->
<g id="node21" class="node">
<title>Node21</title>
<g id="a_node21"><a xlink:href="class_ogre_1_1_g_l_hardware_pixel_buffer.html" target="_top" xlink:title=" ">
<polygon fill="none" stroke="black" points="680,-135 680,-154 840,-154 840,-135 680,-135"/>
<text text-anchor="middle" x="760" y="-142" font-family="Helvetica,sans-Serif" font-size="10.00">Ogre::GLHardwarePixelBuffer</text>
</a>
</g>
</g>
<!-- Node14&#45;&gt;Node21 -->
<g id="edge20" class="edge">
<title>Node14&#45;&gt;Node21</title>
<path fill="none" stroke="midnightblue" d="M631.9,-174.22C661.04,-167.4 693.41,-159.84 718.19,-154.04"/>
<polygon fill="midnightblue" stroke="midnightblue" points="631.09,-170.81 622.15,-176.5 632.68,-177.63 631.09,-170.81"/>
</g>
<!-- Node16 -->
<g id="node16" class="node">
<title>Node16</title>
<g id="a_node16"><a xlink:href="class_ogre_1_1_g_l3_plus_render_buffer.html" target="_top" xlink:title="Renderbuffer surface.">
<polygon fill="none" stroke="black" points="877,-287 877,-306 1026,-306 1026,-287 877,-287"/>
<text text-anchor="middle" x="951.5" y="-294" font-family="Helvetica,sans-Serif" font-size="10.00">Ogre::GL3PlusRenderBuffer</text>
</a>
</g>
</g>
<!-- Node15&#45;&gt;Node16 -->
<g id="edge15" class="edge">
<title>Node15&#45;&gt;Node16</title>
<path fill="none" stroke="midnightblue" d="M845.8,-275.51C865.48,-279.45 885.73,-283.51 903.12,-287"/>
<polygon fill="midnightblue" stroke="midnightblue" points="846.39,-272.05 835.9,-273.52 845.01,-278.92 846.39,-272.05"/>
</g>
<!-- Node17 -->
<g id="node17" class="node">
<title>Node17</title>
<g id="a_node17"><a xlink:href="class_ogre_1_1_g_l3_plus_texture_buffer.html" target="_top" xlink:title="Texture surface.">
<polygon fill="none" stroke="black" points="876,-249 876,-268 1027,-268 1027,-249 876,-249"/>
<text text-anchor="middle" x="951.5" y="-256" font-family="Helvetica,sans-Serif" font-size="10.00">Ogre::GL3PlusTextureBuffer</text>
</a>
</g>
</g>
<!-- Node15&#45;&gt;Node17 -->
<g id="edge16" class="edge">
<title>Node15&#45;&gt;Node17</title>
<path fill="none" stroke="midnightblue" d="M848.11,-258.5C857.41,-258.5 866.81,-258.5 875.94,-258.5"/>
<polygon fill="midnightblue" stroke="midnightblue" points="848.08,-255 838.08,-258.5 848.08,-262 848.08,-255"/>
</g>
<!-- Node19 -->
<g id="node19" class="node">
<title>Node19</title>
<g id="a_node19"><a xlink:href="class_ogre_1_1_g_l_e_s2_render_buffer.html" target="_top" xlink:title="Renderbuffer surface.">
<polygon fill="none" stroke="black" points="881,-211 881,-230 1022,-230 1022,-211 881,-211"/>
<text text-anchor="middle" x="951.5" y="-218" font-family="Helvetica,sans-Serif" font-size="10.00">Ogre::GLES2RenderBuffer</text>
</a>
</g>
</g>
<!-- Node18&#45;&gt;Node19 -->
<g id="edge18" class="edge">
<title>Node18&#45;&gt;Node19</title>
<path fill="none" stroke="midnightblue" d="M844.38,-204.26C859.1,-206.51 874.19,-208.82 888.2,-210.97"/>
<polygon fill="midnightblue" stroke="midnightblue" points="844.68,-200.77 834.27,-202.71 843.62,-207.68 844.68,-200.77"/>
</g>
<!-- Node20 -->
<g id="node20" class="node">
<title>Node20</title>
<g id="a_node20"><a xlink:href="class_ogre_1_1_g_l_e_s2_texture_buffer.html" target="_top" xlink:title="Texture surface.">
<polygon fill="none" stroke="black" points="880,-173 880,-192 1023,-192 1023,-173 880,-173"/>
<text text-anchor="middle" x="951.5" y="-180" font-family="Helvetica,sans-Serif" font-size="10.00">Ogre::GLES2TextureBuffer</text>
</a>
</g>
</g>
<!-- Node18&#45;&gt;Node20 -->
<g id="edge19" class="edge">
<title>Node18&#45;&gt;Node20</title>
<path fill="none" stroke="midnightblue" d="M844.56,-187.53C856.36,-186.97 868.4,-186.4 879.92,-185.85"/>
<polygon fill="midnightblue" stroke="midnightblue" points="844.09,-184.05 834.27,-188.02 844.42,-191.04 844.09,-184.05"/>
</g>
<!-- Node22 -->
<g id="node22" class="node">
<title>Node22</title>
<g id="a_node22"><a xlink:href="class_ogre_1_1_g_l_render_buffer.html" target="_top" xlink:title="Renderbuffer surface.">
<polygon fill="none" stroke="black" points="890,-135 890,-154 1013,-154 1013,-135 890,-135"/>
<text text-anchor="middle" x="951.5" y="-142" font-family="Helvetica,sans-Serif" font-size="10.00">Ogre::GLRenderBuffer</text>
</a>
</g>
</g>
<!-- Node21&#45;&gt;Node22 -->
<g id="edge21" class="edge">
<title>Node21&#45;&gt;Node22</title>
<path fill="none" stroke="midnightblue" d="M850.4,-144.5C863.72,-144.5 877.17,-144.5 889.71,-144.5"/>
<polygon fill="midnightblue" stroke="midnightblue" points="850.27,-141 840.27,-144.5 850.27,-148 850.27,-141"/>
</g>
<!-- Node23 -->
<g id="node23" class="node">
<title>Node23</title>
<g id="a_node23"><a xlink:href="class_ogre_1_1_g_l_texture_buffer.html" target="_top" xlink:title="Texture surface.">
<polygon fill="none" stroke="black" points="889.5,-97 889.5,-116 1013.5,-116 1013.5,-97 889.5,-97"/>
<text text-anchor="middle" x="951.5" y="-104" font-family="Helvetica,sans-Serif" font-size="10.00">Ogre::GLTextureBuffer</text>
</a>
</g>
</g>
<!-- Node21&#45;&gt;Node23 -->
<g id="edge22" class="edge">
<title>Node21&#45;&gt;Node23</title>
<path fill="none" stroke="midnightblue" d="M818.89,-132.89C845.85,-127.49 877.51,-121.14 903.03,-116.02"/>
<polygon fill="midnightblue" stroke="midnightblue" points="817.94,-129.51 808.82,-134.91 819.31,-136.38 817.94,-129.51"/>
</g>
<!-- Node26 -->
<g id="node26" class="node">
<title>Node26</title>
<g id="a_node26"><a xlink:href="class_ogre_1_1_metal_texture_buffer.html" target="_top" xlink:title="Texture surface.">
<polygon fill="none" stroke="black" points="690,-94 690,-113 830,-113 830,-94 690,-94"/>
<text text-anchor="middle" x="760" y="-101" font-family="Helvetica,sans-Serif" font-size="10.00">Ogre::MetalTextureBuffer</text>
</a>
</g>
</g>
<!-- Node25&#45;&gt;Node26 -->
<g id="edge25" class="edge">
<title>Node25&#45;&gt;Node26</title>
<path fill="none" stroke="midnightblue" d="M639.89,-103.5C656.42,-103.5 673.63,-103.5 689.67,-103.5"/>
<polygon fill="midnightblue" stroke="midnightblue" points="639.71,-100 629.71,-103.5 639.71,-107 639.71,-100"/>
</g>
<!-- Node29 -->
<g id="node29" class="node">
<title>Node29</title>
<g id="a_node29"><a xlink:href="class_ogre_1_1_default_hardware_vertex_buffer.html" target="_top" xlink:title=" ">
<polygon fill="none" stroke="black" points="476.5,-0.5 476.5,-30.5 637.5,-30.5 637.5,-0.5 476.5,-0.5"/>
<text text-anchor="start" x="484.5" y="-18.5" font-family="Helvetica,sans-Serif" font-size="10.00">Ogre::DefaultHardwareVertex</text>
<text text-anchor="middle" x="557" y="-7.5" font-family="Helvetica,sans-Serif" font-size="10.00">Buffer</text>
</a>
</g>
</g>
<!-- Node28&#45;&gt;Node29 -->
<g id="edge28" class="edge">
<title>Node28&#45;&gt;Node29</title>
<path fill="none" stroke="midnightblue" d="M424.98,-117.48C428.15,-115.71 431.18,-113.73 434,-111.5 461.75,-89.56 442.76,-63.08 470,-40.5 474.67,-36.63 479.91,-33.36 485.44,-30.59"/>
<polygon fill="midnightblue" stroke="midnightblue" points="423.22,-114.44 415.71,-121.91 426.24,-120.76 423.22,-114.44"/>
</g>
</g>
</svg>
