<?xml version="1.0" encoding="UTF-8" standalone="no"?>
<!DOCTYPE svg PUBLIC "-//W3C//DTD SVG 1.1//EN"
 "http://www.w3.org/Graphics/SVG/1.1/DTD/svg11.dtd">
<!-- Generated by graphviz version 2.43.0 (0)
 -->
<!-- Title: Ogre::ScriptLoader Pages: 1 -->
<svg width="698pt" height="427pt"
 viewBox="0.00 0.00 698.00 427.00" xmlns="http://www.w3.org/2000/svg" xmlns:xlink="http://www.w3.org/1999/xlink">
<g id="graph0" class="graph" transform="scale(1 1) rotate(0) translate(4 423)">
<title>Ogre::ScriptLoader</title>
<!-- Node1 -->
<g id="node1" class="node">
<title>Node1</title>
<g id="a_node1"><a xlink:title="Abstract class defining the interface used by classes which wish to perform script loading to define ...">
<polygon fill="#bfbfbf" stroke="black" points="0,-304.5 0,-323.5 107,-323.5 107,-304.5 0,-304.5"/>
<text text-anchor="middle" x="53.5" y="-311.5" font-family="Helvetica,sans-Serif" font-size="10.00">Ogre::ScriptLoader</text>
</a>
</g>
</g>
<!-- Node2 -->
<g id="node2" class="node">
<title>Node2</title>
<g id="a_node2"><a xlink:href="class_ogre_1_1_cg_fx_script_loader.html" target="_top" xlink:title="Manages Overlay objects, parsing them from .overlay files and storing a lookup library of them.">
<polygon fill="none" stroke="black" points="158.5,-399.5 158.5,-418.5 289.5,-418.5 289.5,-399.5 158.5,-399.5"/>
<text text-anchor="middle" x="224" y="-406.5" font-family="Helvetica,sans-Serif" font-size="10.00">Ogre::CgFxScriptLoader</text>
</a>
</g>
</g>
<!-- Node1&#45;&gt;Node2 -->
<g id="edge1" class="edge">
<title>Node1&#45;&gt;Node2</title>
<path fill="none" stroke="midnightblue" d="M69.84,-331.33C86.24,-348.77 113.85,-375.14 143,-390 150.63,-393.89 159.08,-397 167.54,-399.48"/>
<polygon fill="midnightblue" stroke="midnightblue" points="72.07,-328.58 62.74,-323.58 66.91,-333.31 72.07,-328.58"/>
</g>
<!-- Node3 -->
<g id="node3" class="node">
<title>Node3</title>
<g id="a_node3"><a xlink:href="class_ogre_1_1_overlay_manager.html" target="_top" xlink:title="Manages Overlay objects, parsing them from .overlay files and storing a lookup library of them.">
<polygon fill="none" stroke="black" points="160.5,-361.5 160.5,-380.5 287.5,-380.5 287.5,-361.5 160.5,-361.5"/>
<text text-anchor="middle" x="224" y="-368.5" font-family="Helvetica,sans-Serif" font-size="10.00">Ogre::OverlayManager</text>
</a>
</g>
</g>
<!-- Node1&#45;&gt;Node3 -->
<g id="edge2" class="edge">
<title>Node1&#45;&gt;Node3</title>
<path fill="none" stroke="midnightblue" d="M83.55,-327.98C100.59,-335.8 122.7,-345.29 143,-352 153.84,-355.59 165.72,-358.79 176.93,-361.49"/>
<polygon fill="midnightblue" stroke="midnightblue" points="84.7,-324.65 74.15,-323.6 81.74,-331 84.7,-324.65"/>
</g>
<!-- Node4 -->
<g id="node4" class="node">
<title>Node4</title>
<g id="a_node4"><a xlink:href="class_ogre_1_1_particle_system_manager.html" target="_top" xlink:title="Manages particle systems, particle system scripts (templates) and the available emitter &amp; affector fa...">
<polygon fill="none" stroke="black" points="143,-323.5 143,-342.5 305,-342.5 305,-323.5 143,-323.5"/>
<text text-anchor="middle" x="224" y="-330.5" font-family="Helvetica,sans-Serif" font-size="10.00">Ogre::ParticleSystemManager</text>
</a>
</g>
</g>
<!-- Node1&#45;&gt;Node4 -->
<g id="edge3" class="edge">
<title>Node1&#45;&gt;Node4</title>
<path fill="none" stroke="midnightblue" d="M117.34,-321.09C125.67,-322.03 134.3,-323 142.87,-323.96"/>
<polygon fill="midnightblue" stroke="midnightblue" points="117.68,-317.6 107.35,-319.96 116.9,-324.56 117.68,-317.6"/>
</g>
<!-- Node5 -->
<g id="node5" class="node">
<title>Node5</title>
<g id="a_node5"><a xlink:href="class_ogre_1_1_quake3_shader_manager.html" target="_top" xlink:title="Class for managing Quake3 custom shaders.">
<polygon fill="none" stroke="black" points="144.5,-285.5 144.5,-304.5 303.5,-304.5 303.5,-285.5 144.5,-285.5"/>
<text text-anchor="middle" x="224" y="-292.5" font-family="Helvetica,sans-Serif" font-size="10.00">Ogre::Quake3ShaderManager</text>
</a>
</g>
</g>
<!-- Node1&#45;&gt;Node5 -->
<g id="edge4" class="edge">
<title>Node1&#45;&gt;Node5</title>
<path fill="none" stroke="midnightblue" d="M117.49,-306.9C126.27,-305.91 135.39,-304.88 144.42,-303.86"/>
<polygon fill="midnightblue" stroke="midnightblue" points="116.9,-303.44 107.35,-308.04 117.68,-310.4 116.9,-303.44"/>
</g>
<!-- Node6 -->
<g id="node6" class="node">
<title>Node6</title>
<g id="a_node6"><a xlink:href="class_ogre_1_1_resource_manager.html" target="_top" xlink:title="Defines a generic resource handler.">
<polygon fill="none" stroke="black" points="157,-247.5 157,-266.5 291,-266.5 291,-247.5 157,-247.5"/>
<text text-anchor="middle" x="224" y="-254.5" font-family="Helvetica,sans-Serif" font-size="10.00">Ogre::ResourceManager</text>
</a>
</g>
</g>
<!-- Node1&#45;&gt;Node6 -->
<g id="edge5" class="edge">
<title>Node1&#45;&gt;Node6</title>
<path fill="none" stroke="midnightblue" d="M83.55,-300.02C100.59,-292.2 122.7,-282.71 143,-276 153.84,-272.41 165.72,-269.21 176.93,-266.51"/>
<polygon fill="midnightblue" stroke="midnightblue" points="81.74,-297 74.15,-304.4 84.7,-303.35 81.74,-297"/>
</g>
<!-- Node22 -->
<g id="node22" class="node">
<title>Node22</title>
<g id="a_node22"><a xlink:href="class_ogre_1_1_script_compiler_manager.html" target="_top" xlink:title="Manages threaded compilation of scripts.">
<polygon fill="none" stroke="black" points="143.5,-209.5 143.5,-228.5 304.5,-228.5 304.5,-209.5 143.5,-209.5"/>
<text text-anchor="middle" x="224" y="-216.5" font-family="Helvetica,sans-Serif" font-size="10.00">Ogre::ScriptCompilerManager</text>
</a>
</g>
</g>
<!-- Node1&#45;&gt;Node22 -->
<g id="edge21" class="edge">
<title>Node1&#45;&gt;Node22</title>
<path fill="none" stroke="midnightblue" d="M69.84,-296.67C86.24,-279.23 113.85,-252.86 143,-238 150.63,-234.11 159.08,-231 167.54,-228.52"/>
<polygon fill="midnightblue" stroke="midnightblue" points="66.91,-294.69 62.74,-304.42 72.07,-299.42 66.91,-294.69"/>
</g>
<!-- Node7 -->
<g id="node7" class="node">
<title>Node7</title>
<g id="a_node7"><a xlink:href="class_ogre_1_1_compositor_manager.html" target="_top" xlink:title="Class for managing Compositor settings for Ogre.">
<polygon fill="none" stroke="black" points="343,-361.5 343,-380.5 488,-380.5 488,-361.5 343,-361.5"/>
<text text-anchor="middle" x="415.5" y="-368.5" font-family="Helvetica,sans-Serif" font-size="10.00">Ogre::CompositorManager</text>
</a>
</g>
</g>
<!-- Node6&#45;&gt;Node7 -->
<g id="edge6" class="edge">
<title>Node6&#45;&gt;Node7</title>
<path fill="none" stroke="midnightblue" d="M298.39,-271.35C300.7,-272.77 302.91,-274.31 305,-276 334.04,-299.52 312.19,-328.19 341,-352 345.67,-355.86 351.04,-358.95 356.7,-361.42"/>
<polygon fill="midnightblue" stroke="midnightblue" points="299.57,-268.02 289.08,-266.55 296.36,-274.24 299.57,-268.02"/>
</g>
<!-- Node8 -->
<g id="node8" class="node">
<title>Node8</title>
<g id="a_node8"><a xlink:href="class_ogre_1_1_font_manager.html" target="_top" xlink:title="Manages Font resources, parsing .fontdef files and generally organising them.">
<polygon fill="none" stroke="black" points="360.5,-323.5 360.5,-342.5 470.5,-342.5 470.5,-323.5 360.5,-323.5"/>
<text text-anchor="middle" x="415.5" y="-330.5" font-family="Helvetica,sans-Serif" font-size="10.00">Ogre::FontManager</text>
</a>
</g>
</g>
<!-- Node6&#45;&gt;Node8 -->
<g id="edge7" class="edge">
<title>Node6&#45;&gt;Node8</title>
<path fill="none" stroke="midnightblue" d="M292.79,-270.07C297.03,-271.81 301.14,-273.77 305,-276 325.16,-287.62 320.96,-302.19 341,-314 347.59,-317.88 354.96,-320.98 362.43,-323.45"/>
<polygon fill="midnightblue" stroke="midnightblue" points="293.94,-266.77 283.35,-266.63 291.54,-273.35 293.94,-266.77"/>
</g>
<!-- Node9 -->
<g id="node9" class="node">
<title>Node9</title>
<g id="a_node9"><a xlink:href="class_ogre_1_1_gpu_program_manager.html" target="_top" xlink:title="This ResourceManager manages GPU shader programs.">
<polygon fill="none" stroke="black" points="341,-285.5 341,-304.5 490,-304.5 490,-285.5 341,-285.5"/>
<text text-anchor="middle" x="415.5" y="-292.5" font-family="Helvetica,sans-Serif" font-size="10.00">Ogre::GpuProgramManager</text>
</a>
</g>
</g>
<!-- Node6&#45;&gt;Node9 -->
<g id="edge8" class="edge">
<title>Node6&#45;&gt;Node9</title>
<path fill="none" stroke="midnightblue" d="M282.89,-268.61C309.85,-274.01 341.51,-280.36 367.03,-285.48"/>
<polygon fill="midnightblue" stroke="midnightblue" points="283.31,-265.12 272.82,-266.59 281.94,-271.99 283.31,-265.12"/>
</g>
<!-- Node10 -->
<g id="node10" class="node">
<title>Node10</title>
<g id="a_node10"><a xlink:href="class_ogre_1_1_material_manager.html" target="_top" xlink:title="Class for managing Material settings for Ogre.">
<polygon fill="none" stroke="black" points="351,-247.5 351,-266.5 480,-266.5 480,-247.5 351,-247.5"/>
<text text-anchor="middle" x="415.5" y="-254.5" font-family="Helvetica,sans-Serif" font-size="10.00">Ogre::MaterialManager</text>
</a>
</g>
</g>
<!-- Node6&#45;&gt;Node10 -->
<g id="edge9" class="edge">
<title>Node6&#45;&gt;Node10</title>
<path fill="none" stroke="midnightblue" d="M301.17,-257C317.69,-257 334.99,-257 350.96,-257"/>
<polygon fill="midnightblue" stroke="midnightblue" points="301.01,-253.5 291.01,-257 301.01,-260.5 301.01,-253.5"/>
</g>
<!-- Node11 -->
<g id="node11" class="node">
<title>Node11</title>
<g id="a_node11"><a xlink:href="class_ogre_1_1_mesh_manager.html" target="_top" xlink:title="Handles the management of mesh resources.">
<polygon fill="none" stroke="black" points="358,-209.5 358,-228.5 473,-228.5 473,-209.5 358,-209.5"/>
<text text-anchor="middle" x="415.5" y="-216.5" font-family="Helvetica,sans-Serif" font-size="10.00">Ogre::MeshManager</text>
</a>
</g>
</g>
<!-- Node6&#45;&gt;Node11 -->
<g id="edge10" class="edge">
<title>Node6&#45;&gt;Node11</title>
<path fill="none" stroke="midnightblue" d="M282.89,-245.39C309.85,-239.99 341.51,-233.64 367.03,-228.52"/>
<polygon fill="midnightblue" stroke="midnightblue" points="281.94,-242.01 272.82,-247.41 283.31,-248.88 281.94,-242.01"/>
</g>
<!-- Node12 -->
<g id="node12" class="node">
<title>Node12</title>
<g id="a_node12"><a xlink:href="class_ogre_1_1_skeleton_manager.html" target="_top" xlink:title="Handles the management of skeleton resources.">
<polygon fill="none" stroke="black" points="350,-171.5 350,-190.5 481,-190.5 481,-171.5 350,-171.5"/>
<text text-anchor="middle" x="415.5" y="-178.5" font-family="Helvetica,sans-Serif" font-size="10.00">Ogre::SkeletonManager</text>
</a>
</g>
</g>
<!-- Node6&#45;&gt;Node12 -->
<g id="edge11" class="edge">
<title>Node6&#45;&gt;Node12</title>
<path fill="none" stroke="midnightblue" d="M292.79,-243.93C297.03,-242.19 301.14,-240.23 305,-238 325.16,-226.38 320.96,-211.81 341,-200 347.59,-196.12 354.96,-193.02 362.43,-190.55"/>
<polygon fill="midnightblue" stroke="midnightblue" points="291.54,-240.65 283.35,-247.37 293.94,-247.23 291.54,-240.65"/>
</g>
<!-- Node13 -->
<g id="node13" class="node">
<title>Node13</title>
<g id="a_node13"><a xlink:href="class_ogre_1_1_texture_manager.html" target="_top" xlink:title="Class for loading &amp; managing textures.">
<polygon fill="none" stroke="black" points="353,-133.5 353,-152.5 478,-152.5 478,-133.5 353,-133.5"/>
<text text-anchor="middle" x="415.5" y="-140.5" font-family="Helvetica,sans-Serif" font-size="10.00">Ogre::TextureManager</text>
</a>
</g>
</g>
<!-- Node6&#45;&gt;Node13 -->
<g id="edge12" class="edge">
<title>Node6&#45;&gt;Node13</title>
<path fill="none" stroke="midnightblue" d="M298.39,-242.65C300.7,-241.23 302.91,-239.69 305,-238 334.04,-214.48 312.19,-185.81 341,-162 345.67,-158.14 351.04,-155.05 356.7,-152.58"/>
<polygon fill="midnightblue" stroke="midnightblue" points="296.36,-239.76 289.08,-247.45 299.57,-245.98 296.36,-239.76"/>
</g>
<!-- Node14 -->
<g id="node14" class="node">
<title>Node14</title>
<g id="a_node14"><a xlink:href="class_ogre_1_1_d3_d11_texture_manager.html" target="_top" xlink:title=" ">
<polygon fill="none" stroke="black" points="529,-266.5 529,-285.5 687,-285.5 687,-266.5 529,-266.5"/>
<text text-anchor="middle" x="608" y="-273.5" font-family="Helvetica,sans-Serif" font-size="10.00">Ogre::D3D11TextureManager</text>
</a>
</g>
</g>
<!-- Node13&#45;&gt;Node14 -->
<g id="edge13" class="edge">
<title>Node13&#45;&gt;Node14</title>
<path fill="none" stroke="midnightblue" d="M484.42,-157.65C486.38,-158.98 488.25,-160.43 490,-162 523.62,-192.14 492.04,-227.24 526,-257 530.35,-260.81 535.31,-263.89 540.6,-266.38"/>
<polygon fill="midnightblue" stroke="midnightblue" points="485.78,-154.4 475.35,-152.55 482.35,-160.5 485.78,-154.4"/>
</g>
<!-- Node15 -->
<g id="node15" class="node">
<title>Node15</title>
<g id="a_node15"><a xlink:href="class_ogre_1_1_d3_d9_texture_manager.html" target="_top" xlink:title=" ">
<polygon fill="none" stroke="black" points="532,-228.5 532,-247.5 684,-247.5 684,-228.5 532,-228.5"/>
<text text-anchor="middle" x="608" y="-235.5" font-family="Helvetica,sans-Serif" font-size="10.00">Ogre::D3D9TextureManager</text>
</a>
</g>
</g>
<!-- Node13&#45;&gt;Node15 -->
<g id="edge14" class="edge">
<title>Node13&#45;&gt;Node15</title>
<path fill="none" stroke="midnightblue" d="M481.53,-156.75C484.49,-158.31 487.34,-160.06 490,-162 514.21,-179.66 501.6,-201.62 526,-219 531.41,-222.85 537.49,-225.94 543.83,-228.4"/>
<polygon fill="midnightblue" stroke="midnightblue" points="482.89,-153.52 472.34,-152.56 479.99,-159.89 482.89,-153.52"/>
</g>
<!-- Node16 -->
<g id="node16" class="node">
<title>Node16</title>
<g id="a_node16"><a xlink:href="class_ogre_1_1_default_texture_manager.html" target="_top" xlink:title="Specialisation of TextureManager for offline processing. Cannot be used with an active RenderSystem.">
<polygon fill="none" stroke="black" points="527.5,-190.5 527.5,-209.5 688.5,-209.5 688.5,-190.5 527.5,-190.5"/>
<text text-anchor="middle" x="608" y="-197.5" font-family="Helvetica,sans-Serif" font-size="10.00">Ogre::DefaultTextureManager</text>
</a>
</g>
</g>
<!-- Node13&#45;&gt;Node16 -->
<g id="edge15" class="edge">
<title>Node13&#45;&gt;Node16</title>
<path fill="none" stroke="midnightblue" d="M470.06,-155.28C476.85,-157.3 483.64,-159.54 490,-162 506.87,-168.53 509.06,-174.66 526,-181 535.88,-184.69 546.71,-187.83 557.14,-190.42"/>
<polygon fill="midnightblue" stroke="midnightblue" points="470.74,-151.84 460.17,-152.5 468.85,-158.58 470.74,-151.84"/>
</g>
<!-- Node17 -->
<g id="node17" class="node">
<title>Node17</title>
<g id="a_node17"><a xlink:href="class_ogre_1_1_g_l3_plus_texture_manager.html" target="_top" xlink:title="GL3Plus&#45;specific implementation of a TextureManager.">
<polygon fill="none" stroke="black" points="526,-152.5 526,-171.5 690,-171.5 690,-152.5 526,-152.5"/>
<text text-anchor="middle" x="608" y="-159.5" font-family="Helvetica,sans-Serif" font-size="10.00">Ogre::GL3PlusTextureManager</text>
</a>
</g>
</g>
<!-- Node13&#45;&gt;Node17 -->
<g id="edge16" class="edge">
<title>Node13&#45;&gt;Node17</title>
<path fill="none" stroke="midnightblue" d="M488.24,-150.16C500.51,-151.38 513.34,-152.66 525.83,-153.9"/>
<polygon fill="midnightblue" stroke="midnightblue" points="488.38,-146.65 478.09,-149.14 487.69,-153.62 488.38,-146.65"/>
</g>
<!-- Node18 -->
<g id="node18" class="node">
<title>Node18</title>
<g id="a_node18"><a xlink:href="class_ogre_1_1_g_l_e_s2_texture_manager.html" target="_top" xlink:title="GL ES&#45;specific implementation of a TextureManager.">
<polygon fill="none" stroke="black" points="530.5,-114.5 530.5,-133.5 685.5,-133.5 685.5,-114.5 530.5,-114.5"/>
<text text-anchor="middle" x="608" y="-121.5" font-family="Helvetica,sans-Serif" font-size="10.00">Ogre::GLES2TextureManager</text>
</a>
</g>
</g>
<!-- Node13&#45;&gt;Node18 -->
<g id="edge17" class="edge">
<title>Node13&#45;&gt;Node18</title>
<path fill="none" stroke="midnightblue" d="M488.4,-135.83C502.08,-134.46 516.45,-133.03 530.27,-131.65"/>
<polygon fill="midnightblue" stroke="midnightblue" points="487.69,-132.38 478.09,-136.86 488.38,-139.35 487.69,-132.38"/>
</g>
<!-- Node19 -->
<g id="node19" class="node">
<title>Node19</title>
<g id="a_node19"><a xlink:href="class_ogre_1_1_g_l_texture_manager.html" target="_top" xlink:title="GL&#45;specific implementation of a TextureManager.">
<polygon fill="none" stroke="black" points="539.5,-76.5 539.5,-95.5 676.5,-95.5 676.5,-76.5 539.5,-76.5"/>
<text text-anchor="middle" x="608" y="-83.5" font-family="Helvetica,sans-Serif" font-size="10.00">Ogre::GLTextureManager</text>
</a>
</g>
</g>
<!-- Node13&#45;&gt;Node19 -->
<g id="edge18" class="edge">
<title>Node13&#45;&gt;Node19</title>
<path fill="none" stroke="midnightblue" d="M451.11,-129.96C472.51,-122.15 500.64,-112.35 526,-105 537.79,-101.58 550.68,-98.34 562.64,-95.53"/>
<polygon fill="midnightblue" stroke="midnightblue" points="449.66,-126.76 441.49,-133.5 452.08,-133.33 449.66,-126.76"/>
</g>
<!-- Node20 -->
<g id="node20" class="node">
<title>Node20</title>
<g id="a_node20"><a xlink:href="class_ogre_1_1_metal_texture_manager.html" target="_top" xlink:title=" ">
<polygon fill="none" stroke="black" points="532,-38.5 532,-57.5 684,-57.5 684,-38.5 532,-38.5"/>
<text text-anchor="middle" x="608" y="-45.5" font-family="Helvetica,sans-Serif" font-size="10.00">Ogre::MetalTextureManager</text>
</a>
</g>
</g>
<!-- Node13&#45;&gt;Node20 -->
<g id="edge19" class="edge">
<title>Node13&#45;&gt;Node20</title>
<path fill="none" stroke="midnightblue" d="M435.19,-126.7C455.99,-109.39 491.25,-82.46 526,-67 534.58,-63.18 544.02,-60.08 553.34,-57.57"/>
<polygon fill="midnightblue" stroke="midnightblue" points="432.83,-124.11 427.46,-133.25 437.35,-129.45 432.83,-124.11"/>
</g>
<!-- Node21 -->
<g id="node21" class="node">
<title>Node21</title>
<g id="a_node21"><a xlink:href="class_ogre_1_1_tiny_texture_manager.html" target="_top" xlink:title=" ">
<polygon fill="none" stroke="black" points="535.5,-0.5 535.5,-19.5 680.5,-19.5 680.5,-0.5 535.5,-0.5"/>
<text text-anchor="middle" x="608" y="-7.5" font-family="Helvetica,sans-Serif" font-size="10.00">Ogre::TinyTextureManager</text>
</a>
</g>
</g>
<!-- Node13&#45;&gt;Node21 -->
<g id="edge20" class="edge">
<title>Node13&#45;&gt;Node21</title>
<path fill="none" stroke="midnightblue" d="M428.67,-124.87C446.78,-99.37 483.32,-53.32 526,-29 532.78,-25.14 540.3,-22.06 547.95,-19.61"/>
<polygon fill="midnightblue" stroke="midnightblue" points="425.68,-123.05 422.85,-133.26 431.43,-127.04 425.68,-123.05"/>
</g>
</g>
</svg>
