<?xml version="1.0" encoding="UTF-8" standalone="no"?>
<!DOCTYPE svg PUBLIC "-//W3C//DTD SVG 1.1//EN"
 "http://www.w3.org/Graphics/SVG/1.1/DTD/svg11.dtd">
<!-- Generated by graphviz version 2.43.0 (0)
 -->
<!-- Title: Ogre::Resource Pages: 1 -->
<svg width="960pt" height="477pt"
 viewBox="0.00 0.00 960.00 477.00" xmlns="http://www.w3.org/2000/svg" xmlns:xlink="http://www.w3.org/1999/xlink">
<g id="graph0" class="graph" transform="scale(1 1) rotate(0) translate(4 473)">
<title>Ogre::Resource</title>
<!-- Node1 -->
<g id="node1" class="node">
<title>Node1</title>
<g id="a_node1"><a xlink:title="Abstract class representing a loadable resource.">
<polygon fill="#bfbfbf" stroke="black" points="154,-285.5 154,-304.5 245,-304.5 245,-285.5 154,-285.5"/>
<text text-anchor="middle" x="199.5" y="-292.5" font-family="Helvetica,sans-Serif" font-size="10.00">Ogre::Resource</text>
</a>
</g>
</g>
<!-- Node4 -->
<g id="node4" class="node">
<title>Node4</title>
<g id="a_node4"><a xlink:href="class_ogre_1_1_bsp_level.html" target="_top" xlink:title="Holds all the data associated with a Binary Space Parition (BSP) based indoor level.">
<polygon fill="none" stroke="black" points="289.5,-418.5 289.5,-437.5 379.5,-437.5 379.5,-418.5 289.5,-418.5"/>
<text text-anchor="middle" x="334.5" y="-425.5" font-family="Helvetica,sans-Serif" font-size="10.00">Ogre::BspLevel</text>
</a>
</g>
</g>
<!-- Node1&#45;&gt;Node4 -->
<g id="edge3" class="edge">
<title>Node1&#45;&gt;Node4</title>
<path fill="none" stroke="midnightblue" d="M209.28,-313.96C221.82,-339.06 247.14,-383.17 281,-409 286.01,-412.82 291.86,-415.93 297.8,-418.43"/>
<polygon fill="midnightblue" stroke="midnightblue" points="212.34,-312.24 204.84,-304.76 206.04,-315.29 212.34,-312.24"/>
</g>
<!-- Node5 -->
<g id="node5" class="node">
<title>Node5</title>
<g id="a_node5"><a xlink:href="class_ogre_1_1_compositor.html" target="_top" xlink:title="Class representing a Compositor object.">
<polygon fill="none" stroke="black" points="283.5,-380.5 283.5,-399.5 385.5,-399.5 385.5,-380.5 283.5,-380.5"/>
<text text-anchor="middle" x="334.5" y="-387.5" font-family="Helvetica,sans-Serif" font-size="10.00">Ogre::Compositor</text>
</a>
</g>
</g>
<!-- Node1&#45;&gt;Node5 -->
<g id="edge4" class="edge">
<title>Node1&#45;&gt;Node5</title>
<path fill="none" stroke="midnightblue" d="M215.38,-312.76C230.42,-329.73 255.08,-355.04 281,-371 287.03,-374.71 293.88,-377.85 300.61,-380.44"/>
<polygon fill="midnightblue" stroke="midnightblue" points="217.63,-310.01 208.44,-304.73 212.33,-314.59 217.63,-310.01"/>
</g>
<!-- Node6 -->
<g id="node6" class="node">
<title>Node6</title>
<g id="a_node6"><a xlink:href="class_ogre_1_1_font.html" target="_top" xlink:title="Class representing a font in the system.">
<polygon fill="none" stroke="black" points="301,-342.5 301,-361.5 368,-361.5 368,-342.5 301,-342.5"/>
<text text-anchor="middle" x="334.5" y="-349.5" font-family="Helvetica,sans-Serif" font-size="10.00">Ogre::Font</text>
</a>
</g>
</g>
<!-- Node1&#45;&gt;Node6 -->
<g id="edge5" class="edge">
<title>Node1&#45;&gt;Node6</title>
<path fill="none" stroke="midnightblue" d="M228.44,-308.98C243.8,-316.46 263.27,-325.63 281,-333 288.88,-336.28 297.54,-339.54 305.52,-342.42"/>
<polygon fill="midnightblue" stroke="midnightblue" points="229.98,-305.84 219.47,-304.57 226.9,-312.12 229.98,-305.84"/>
</g>
<!-- Node7 -->
<g id="node7" class="node">
<title>Node7</title>
<g id="a_node7"><a xlink:href="class_ogre_1_1_gpu_program.html" target="_top" xlink:title="Defines a program which runs on the GPU such as a vertex or fragment program.">
<polygon fill="none" stroke="black" points="281,-304.5 281,-323.5 388,-323.5 388,-304.5 281,-304.5"/>
<text text-anchor="middle" x="334.5" y="-311.5" font-family="Helvetica,sans-Serif" font-size="10.00">Ogre::GpuProgram</text>
</a>
</g>
</g>
<!-- Node1&#45;&gt;Node7 -->
<g id="edge6" class="edge">
<title>Node1&#45;&gt;Node7</title>
<path fill="none" stroke="midnightblue" d="M255.31,-302.83C263.77,-304.04 272.49,-305.28 280.91,-306.49"/>
<polygon fill="midnightblue" stroke="midnightblue" points="255.55,-299.33 245.16,-301.38 254.56,-306.26 255.55,-299.33"/>
</g>
<!-- Node25 -->
<g id="node23" class="node">
<title>Node25</title>
<g id="a_node23"><a xlink:href="class_ogre_1_1_material.html" target="_top" xlink:title="Class encapsulates rendering properties of an object.">
<polygon fill="none" stroke="black" points="291.5,-266.5 291.5,-285.5 377.5,-285.5 377.5,-266.5 291.5,-266.5"/>
<text text-anchor="middle" x="334.5" y="-273.5" font-family="Helvetica,sans-Serif" font-size="10.00">Ogre::Material</text>
</a>
</g>
</g>
<!-- Node1&#45;&gt;Node25 -->
<g id="edge22" class="edge">
<title>Node1&#45;&gt;Node25</title>
<path fill="none" stroke="midnightblue" d="M255.16,-287.19C267.27,-285.46 279.92,-283.65 291.43,-282.01"/>
<polygon fill="midnightblue" stroke="midnightblue" points="254.56,-283.74 245.16,-288.62 255.55,-290.67 254.56,-283.74"/>
</g>
<!-- Node26 -->
<g id="node24" class="node">
<title>Node26</title>
<g id="a_node24"><a xlink:href="class_ogre_1_1_mesh.html" target="_top" xlink:title="Resource holding data about 3D mesh.">
<polygon fill="none" stroke="black" points="298.5,-228.5 298.5,-247.5 370.5,-247.5 370.5,-228.5 298.5,-228.5"/>
<text text-anchor="middle" x="334.5" y="-235.5" font-family="Helvetica,sans-Serif" font-size="10.00">Ogre::Mesh</text>
</a>
</g>
</g>
<!-- Node1&#45;&gt;Node26 -->
<g id="edge23" class="edge">
<title>Node1&#45;&gt;Node26</title>
<path fill="none" stroke="midnightblue" d="M228.44,-281.02C243.8,-273.54 263.27,-264.37 281,-257 288.88,-253.72 297.54,-250.46 305.52,-247.58"/>
<polygon fill="midnightblue" stroke="midnightblue" points="226.9,-277.88 219.47,-285.43 229.98,-284.16 226.9,-277.88"/>
</g>
<!-- Node28 -->
<g id="node26" class="node">
<title>Node28</title>
<g id="a_node26"><a xlink:href="class_ogre_1_1_skeleton.html" target="_top" xlink:title="A collection of Bone objects used to animate a skinned mesh.">
<polygon fill="none" stroke="black" points="290.5,-190.5 290.5,-209.5 378.5,-209.5 378.5,-190.5 290.5,-190.5"/>
<text text-anchor="middle" x="334.5" y="-197.5" font-family="Helvetica,sans-Serif" font-size="10.00">Ogre::Skeleton</text>
</a>
</g>
</g>
<!-- Node1&#45;&gt;Node28 -->
<g id="edge25" class="edge">
<title>Node1&#45;&gt;Node28</title>
<path fill="none" stroke="midnightblue" d="M215.38,-277.24C230.42,-260.27 255.08,-234.96 281,-219 287.03,-215.29 293.88,-212.15 300.61,-209.56"/>
<polygon fill="midnightblue" stroke="midnightblue" points="212.33,-275.41 208.44,-285.27 217.63,-279.99 212.33,-275.41"/>
</g>
<!-- Node30 -->
<g id="node28" class="node">
<title>Node30</title>
<g id="a_node28"><a xlink:href="class_ogre_1_1_texture.html" target="_top" xlink:title="Abstract class representing a Texture resource.">
<polygon fill="none" stroke="black" points="293.5,-95.5 293.5,-114.5 375.5,-114.5 375.5,-95.5 293.5,-95.5"/>
<text text-anchor="middle" x="334.5" y="-102.5" font-family="Helvetica,sans-Serif" font-size="10.00">Ogre::Texture</text>
</a>
</g>
</g>
<!-- Node1&#45;&gt;Node30 -->
<g id="edge27" class="edge">
<title>Node1&#45;&gt;Node30</title>
<path fill="none" stroke="midnightblue" d="M213.14,-276.94C240.68,-237.6 305.3,-145.28 326.58,-114.89"/>
<polygon fill="midnightblue" stroke="midnightblue" points="210.15,-275.12 207.28,-285.32 215.88,-279.13 210.15,-275.12"/>
</g>
<!-- Node2 -->
<g id="node2" class="node">
<title>Node2</title>
<g id="a_node2"><a xlink:href="class_ogre_1_1_string_interface.html" target="_top" xlink:title="Class defining the common interface which classes can use to present a reflection&#45;style,...">
<polygon fill="none" stroke="black" points="0,-304.5 0,-323.5 118,-323.5 118,-304.5 0,-304.5"/>
<text text-anchor="middle" x="59" y="-311.5" font-family="Helvetica,sans-Serif" font-size="10.00">Ogre::StringInterface</text>
</a>
</g>
</g>
<!-- Node2&#45;&gt;Node1 -->
<g id="edge1" class="edge">
<title>Node2&#45;&gt;Node1</title>
<path fill="none" stroke="midnightblue" d="M128.39,-304.62C136.98,-303.44 145.6,-302.26 153.7,-301.15"/>
<polygon fill="midnightblue" stroke="midnightblue" points="127.77,-301.17 118.34,-306 128.72,-308.11 127.77,-301.17"/>
</g>
<!-- Node3 -->
<g id="node3" class="node">
<title>Node3</title>
<g id="a_node3"><a xlink:title=" ">
<polygon fill="none" stroke="#bfbfbf" points="16,-266.5 16,-285.5 102,-285.5 102,-266.5 16,-266.5"/>
<text text-anchor="middle" x="59" y="-273.5" font-family="Helvetica,sans-Serif" font-size="10.00">ResourceAlloc</text>
</a>
</g>
</g>
<!-- Node3&#45;&gt;Node1 -->
<g id="edge2" class="edge">
<title>Node3&#45;&gt;Node1</title>
<path fill="none" stroke="midnightblue" d="M112.45,-283.2C125.99,-285.05 140.45,-287.04 153.57,-288.84"/>
<polygon fill="midnightblue" stroke="midnightblue" points="112.69,-279.7 102.31,-281.8 111.74,-286.63 112.69,-279.7"/>
</g>
<!-- Node8 -->
<g id="node8" class="node">
<title>Node8</title>
<g id="a_node8"><a xlink:href="class_ogre_1_1_d3_d9_gpu_program.html" target="_top" xlink:title="Direct3D implementation of a few things common to low&#45;level vertex &amp; fragment programs.">
<polygon fill="none" stroke="black" points="434.5,-411.5 434.5,-430.5 568.5,-430.5 568.5,-411.5 434.5,-411.5"/>
<text text-anchor="middle" x="501.5" y="-418.5" font-family="Helvetica,sans-Serif" font-size="10.00">Ogre::D3D9GpuProgram</text>
</a>
</g>
</g>
<!-- Node7&#45;&gt;Node8 -->
<g id="edge7" class="edge">
<title>Node7&#45;&gt;Node8</title>
<path fill="none" stroke="midnightblue" d="M381.72,-328.32C383.94,-329.74 386.05,-331.3 388,-333 414.04,-355.77 396.82,-380.61 424,-402 428.95,-405.89 434.59,-409 440.51,-411.48"/>
<polygon fill="midnightblue" stroke="midnightblue" points="383.2,-325.15 372.73,-323.5 379.89,-331.31 383.2,-325.15"/>
</g>
<!-- Node9 -->
<g id="node9" class="node">
<title>Node9</title>
<g id="a_node9"><a xlink:href="class_ogre_1_1_g_l_gpu_program.html" target="_top" xlink:title="Generalised low&#45;level GL program, can be applied to multiple types (eg ARB and NV)">
<polygon fill="none" stroke="black" points="442,-373.5 442,-392.5 561,-392.5 561,-373.5 442,-373.5"/>
<text text-anchor="middle" x="501.5" y="-380.5" font-family="Helvetica,sans-Serif" font-size="10.00">Ogre::GLGpuProgram</text>
</a>
</g>
</g>
<!-- Node7&#45;&gt;Node9 -->
<g id="edge8" class="edge">
<title>Node7&#45;&gt;Node9</title>
<path fill="none" stroke="midnightblue" d="M372.84,-327.14C377.96,-329.05 383.12,-331.04 388,-333 420.52,-346.09 457.54,-362.93 479.95,-373.34"/>
<polygon fill="midnightblue" stroke="midnightblue" points="373.75,-323.75 363.16,-323.59 371.34,-330.32 373.75,-323.75"/>
</g>
<!-- Node12 -->
<g id="node12" class="node">
<title>Node12</title>
<g id="a_node12"><a xlink:href="class_ogre_1_1_high_level_gpu_program.html" target="_top" xlink:title="Abstract base class representing a high&#45;level program (a vertex or fragment program).">
<polygon fill="none" stroke="black" points="424,-316.5 424,-335.5 579,-335.5 579,-316.5 424,-316.5"/>
<text text-anchor="middle" x="501.5" y="-323.5" font-family="Helvetica,sans-Serif" font-size="10.00">Ogre::HighLevelGpuProgram</text>
</a>
</g>
</g>
<!-- Node7&#45;&gt;Node12 -->
<g id="edge11" class="edge">
<title>Node7&#45;&gt;Node12</title>
<path fill="none" stroke="midnightblue" d="M398.25,-318.56C406.66,-319.18 415.37,-319.81 423.98,-320.44"/>
<polygon fill="midnightblue" stroke="midnightblue" points="398.39,-315.06 388.16,-317.83 397.88,-322.05 398.39,-315.06"/>
</g>
<!-- Node24 -->
<g id="node22" class="node">
<title>Node24</title>
<g id="a_node22"><a xlink:href="class_ogre_1_1_unified_high_level_gpu_program.html" target="_top" xlink:title="Specialisation of HighLevelGpuProgram which just delegates its implementation to one other GpuProgram...">
<polygon fill="none" stroke="black" points="427,-267 427,-297 576,-297 576,-267 427,-267"/>
<text text-anchor="start" x="435" y="-285" font-family="Helvetica,sans-Serif" font-size="10.00">Ogre::UnifiedHighLevelGpu</text>
<text text-anchor="middle" x="501.5" y="-274" font-family="Helvetica,sans-Serif" font-size="10.00">Program</text>
</a>
</g>
</g>
<!-- Node7&#45;&gt;Node24 -->
<g id="edge21" class="edge">
<title>Node7&#45;&gt;Node24</title>
<path fill="none" stroke="midnightblue" d="M394.44,-302.57C404.95,-300.53 416.02,-298.38 426.89,-296.28"/>
<polygon fill="midnightblue" stroke="midnightblue" points="393.71,-299.15 384.56,-304.49 395.04,-306.02 393.71,-299.15"/>
</g>
<!-- Node10 -->
<g id="node10" class="node">
<title>Node10</title>
<g id="a_node10"><a xlink:href="class_ogre_1_1_g_l_arb_gpu_program.html" target="_top" xlink:title="Specialisation of the GL low&#45;level program for ARB programs.">
<polygon fill="none" stroke="black" points="626.5,-449.5 626.5,-468.5 763.5,-468.5 763.5,-449.5 626.5,-449.5"/>
<text text-anchor="middle" x="695" y="-456.5" font-family="Helvetica,sans-Serif" font-size="10.00">Ogre::GLArbGpuProgram</text>
</a>
</g>
</g>
<!-- Node9&#45;&gt;Node10 -->
<g id="edge9" class="edge">
<title>Node9&#45;&gt;Node10</title>
<path fill="none" stroke="midnightblue" d="M567.22,-396.2C571.31,-397.9 575.28,-399.83 579,-402 599.1,-413.72 594.86,-428.36 615,-440 621.72,-443.88 629.19,-446.98 636.79,-449.44"/>
<polygon fill="midnightblue" stroke="midnightblue" points="568.09,-392.79 557.5,-392.6 565.66,-399.35 568.09,-392.79"/>
</g>
<!-- Node11 -->
<g id="node11" class="node">
<title>Node11</title>
<g id="a_node11"><a xlink:href="class_ogre_1_1_g_l_gpu_nvparse_program.html" target="_top" xlink:title=" ">
<polygon fill="none" stroke="black" points="615,-411.5 615,-430.5 775,-430.5 775,-411.5 615,-411.5"/>
<text text-anchor="middle" x="695" y="-418.5" font-family="Helvetica,sans-Serif" font-size="10.00">Ogre::GLGpuNvparseProgram</text>
</a>
</g>
</g>
<!-- Node9&#45;&gt;Node11 -->
<g id="edge10" class="edge">
<title>Node9&#45;&gt;Node11</title>
<path fill="none" stroke="midnightblue" d="M560.65,-394.54C587.96,-399.96 620.13,-406.34 646.02,-411.48"/>
<polygon fill="midnightblue" stroke="midnightblue" points="561.31,-391.1 550.82,-392.59 559.95,-397.97 561.31,-391.1"/>
</g>
<!-- Node13 -->
<g id="node13" class="node">
<title>Node13</title>
<g id="a_node13"><a xlink:href="class_ogre_1_1_cg_program.html" target="_top" xlink:title="Specialisation of HighLevelGpuProgram to provide support for nVidia&#39;s CG language.">
<polygon fill="none" stroke="black" points="645,-373.5 645,-392.5 745,-392.5 745,-373.5 645,-373.5"/>
<text text-anchor="middle" x="695" y="-380.5" font-family="Helvetica,sans-Serif" font-size="10.00">Ogre::CgProgram</text>
</a>
</g>
</g>
<!-- Node12&#45;&gt;Node13 -->
<g id="edge12" class="edge">
<title>Node12&#45;&gt;Node13</title>
<path fill="none" stroke="midnightblue" d="M538.24,-338.99C560.23,-346.75 589.06,-356.52 615,-364 626.66,-367.36 639.4,-370.61 651.18,-373.44"/>
<polygon fill="midnightblue" stroke="midnightblue" points="539.25,-335.63 528.66,-335.58 536.91,-342.23 539.25,-335.63"/>
</g>
<!-- Node14 -->
<g id="node14" class="node">
<title>Node14</title>
<g id="a_node14"><a xlink:href="class_ogre_1_1_d3_d11_h_l_s_l_program.html" target="_top" xlink:title="Specialization of HighLevelGpuProgram to provide support for D3D11 High&#45;Level Shader Language (HLSL).">
<polygon fill="none" stroke="black" points="623,-335.5 623,-354.5 767,-354.5 767,-335.5 623,-335.5"/>
<text text-anchor="middle" x="695" y="-342.5" font-family="Helvetica,sans-Serif" font-size="10.00">Ogre::D3D11HLSLProgram</text>
</a>
</g>
</g>
<!-- Node12&#45;&gt;Node14 -->
<g id="edge13" class="edge">
<title>Node12&#45;&gt;Node14</title>
<path fill="none" stroke="midnightblue" d="M589.28,-334.61C600.52,-335.73 611.94,-336.86 622.89,-337.94"/>
<polygon fill="midnightblue" stroke="midnightblue" points="589.31,-331.1 579.01,-333.59 588.62,-338.06 589.31,-331.1"/>
</g>
<!-- Node15 -->
<g id="node15" class="node">
<title>Node15</title>
<g id="a_node15"><a xlink:href="class_ogre_1_1_d3_d9_h_l_s_l_program.html" target="_top" xlink:title="Specialisation of HighLevelGpuProgram to provide support for D3D9 High&#45;Level Shader Language (HLSL).">
<polygon fill="none" stroke="black" points="626,-297.5 626,-316.5 764,-316.5 764,-297.5 626,-297.5"/>
<text text-anchor="middle" x="695" y="-304.5" font-family="Helvetica,sans-Serif" font-size="10.00">Ogre::D3D9HLSLProgram</text>
</a>
</g>
</g>
<!-- Node12&#45;&gt;Node15 -->
<g id="edge14" class="edge">
<title>Node12&#45;&gt;Node15</title>
<path fill="none" stroke="midnightblue" d="M589.28,-317.39C601.58,-316.17 614.09,-314.93 625.97,-313.75"/>
<polygon fill="midnightblue" stroke="midnightblue" points="588.62,-313.94 579.01,-318.41 589.31,-320.9 588.62,-313.94"/>
</g>
<!-- Node16 -->
<g id="node16" class="node">
<title>Node16</title>
<g id="a_node16"><a xlink:href="class_ogre_1_1_g_l_s_lang_program.html" target="_top" xlink:title="Specialisation of HighLevelGpuProgram to provide support for the GLSLang compiler by Khronos.">
<polygon fill="none" stroke="black" points="630.5,-259.5 630.5,-278.5 759.5,-278.5 759.5,-259.5 630.5,-259.5"/>
<text text-anchor="middle" x="695" y="-266.5" font-family="Helvetica,sans-Serif" font-size="10.00">Ogre::GLSLangProgram</text>
</a>
</g>
</g>
<!-- Node12&#45;&gt;Node16 -->
<g id="edge15" class="edge">
<title>Node12&#45;&gt;Node16</title>
<path fill="none" stroke="midnightblue" d="M558.81,-313.68C565.69,-311.69 572.56,-309.46 579,-307 595.9,-300.55 598.07,-294.39 615,-288 624.77,-284.31 635.49,-281.17 645.8,-278.57"/>
<polygon fill="midnightblue" stroke="midnightblue" points="557.49,-310.41 548.77,-316.42 559.34,-317.16 557.49,-310.41"/>
</g>
<!-- Node17 -->
<g id="node17" class="node">
<title>Node17</title>
<g id="a_node17"><a xlink:href="class_ogre_1_1_g_l_s_l_shader_common.html" target="_top" xlink:title="Specialisation of HighLevelGpuProgram to provide support for OpenGL Shader Language (GLSL).">
<polygon fill="none" stroke="black" points="621,-221.5 621,-240.5 769,-240.5 769,-221.5 621,-221.5"/>
<text text-anchor="middle" x="695" y="-228.5" font-family="Helvetica,sans-Serif" font-size="10.00">Ogre::GLSLShaderCommon</text>
</a>
</g>
</g>
<!-- Node12&#45;&gt;Node17 -->
<g id="edge16" class="edge">
<title>Node12&#45;&gt;Node17</title>
<path fill="none" stroke="midnightblue" d="M570.55,-312.21C573.5,-310.65 576.34,-308.92 579,-307 603.29,-289.46 590.64,-267.45 615,-250 620.39,-246.14 626.46,-243.05 632.79,-240.59"/>
<polygon fill="midnightblue" stroke="midnightblue" points="569.05,-309.04 561.39,-316.37 571.95,-315.42 569.05,-309.04"/>
</g>
<!-- Node23 -->
<g id="node21" class="node">
<title>Node23</title>
<g id="a_node21"><a xlink:href="class_ogre_1_1_metal_program.html" target="_top" xlink:title="Specialisation of HighLevelGpuProgram to provide support for Metal Shader Language.">
<polygon fill="none" stroke="black" points="637.5,-183.5 637.5,-202.5 752.5,-202.5 752.5,-183.5 637.5,-183.5"/>
<text text-anchor="middle" x="695" y="-190.5" font-family="Helvetica,sans-Serif" font-size="10.00">Ogre::MetalProgram</text>
</a>
</g>
</g>
<!-- Node12&#45;&gt;Node23 -->
<g id="edge20" class="edge">
<title>Node12&#45;&gt;Node23</title>
<path fill="none" stroke="midnightblue" d="M573.46,-311.29C575.4,-309.98 577.25,-308.55 579,-307 612.77,-277.02 581.12,-241.85 615,-212 621.35,-206.4 629.06,-202.39 637.15,-199.52"/>
<polygon fill="midnightblue" stroke="midnightblue" points="571.47,-308.4 564.49,-316.37 574.92,-314.49 571.47,-308.4"/>
</g>
<!-- Node18 -->
<g id="node18" class="node">
<title>Node18</title>
<g id="a_node18"><a xlink:href="class_ogre_1_1_g_l_s_l_1_1_g_l_s_l_program.html" target="_top" xlink:title=" ">
<polygon fill="none" stroke="black" points="811,-259.5 811,-278.5 952,-278.5 952,-259.5 811,-259.5"/>
<text text-anchor="middle" x="881.5" y="-266.5" font-family="Helvetica,sans-Serif" font-size="10.00">Ogre::GLSL::GLSLProgram</text>
</a>
</g>
</g>
<!-- Node17&#45;&gt;Node18 -->
<g id="edge17" class="edge">
<title>Node17&#45;&gt;Node18</title>
<path fill="none" stroke="midnightblue" d="M752.37,-242.61C778.61,-248.01 809.44,-254.36 834.28,-259.48"/>
<polygon fill="midnightblue" stroke="midnightblue" points="753.06,-239.18 742.56,-240.59 751.65,-246.03 753.06,-239.18"/>
</g>
<!-- Node19 -->
<g id="node19" class="node">
<title>Node19</title>
<g id="a_node19"><a xlink:href="class_ogre_1_1_g_l_s_l_e_s_program.html" target="_top" xlink:title=" ">
<polygon fill="none" stroke="red" points="820,-221.5 820,-240.5 943,-240.5 943,-221.5 820,-221.5"/>
<text text-anchor="middle" x="881.5" y="-228.5" font-family="Helvetica,sans-Serif" font-size="10.00">Ogre::GLSLESProgram</text>
</a>
</g>
</g>
<!-- Node17&#45;&gt;Node19 -->
<g id="edge18" class="edge">
<title>Node17&#45;&gt;Node19</title>
<path fill="none" stroke="midnightblue" d="M779.51,-231C793.11,-231 806.96,-231 819.87,-231"/>
<polygon fill="midnightblue" stroke="midnightblue" points="779.18,-227.5 769.18,-231 779.18,-234.5 779.18,-227.5"/>
</g>
<!-- Node21 -->
<g id="node20" class="node">
<title>Node21</title>
<g id="a_node20"><a xlink:href="class_ogre_1_1_g_l_s_l_shader.html" target="_top" xlink:title=" ">
<polygon fill="none" stroke="red" points="829.5,-183.5 829.5,-202.5 933.5,-202.5 933.5,-183.5 829.5,-183.5"/>
<text text-anchor="middle" x="881.5" y="-190.5" font-family="Helvetica,sans-Serif" font-size="10.00">Ogre::GLSLShader</text>
</a>
</g>
</g>
<!-- Node17&#45;&gt;Node21 -->
<g id="edge19" class="edge">
<title>Node17&#45;&gt;Node21</title>
<path fill="none" stroke="midnightblue" d="M752.37,-219.39C778.61,-213.99 809.44,-207.64 834.28,-202.52"/>
<polygon fill="midnightblue" stroke="midnightblue" points="751.65,-215.97 742.56,-221.41 753.06,-222.82 751.65,-215.97"/>
</g>
<!-- Node27 -->
<g id="node25" class="node">
<title>Node27</title>
<g id="a_node25"><a xlink:href="class_ogre_1_1_patch_mesh.html" target="_top" xlink:title="Patch specialisation of Mesh.">
<polygon fill="none" stroke="black" points="452,-228.5 452,-247.5 551,-247.5 551,-228.5 452,-228.5"/>
<text text-anchor="middle" x="501.5" y="-235.5" font-family="Helvetica,sans-Serif" font-size="10.00">Ogre::PatchMesh</text>
</a>
</g>
</g>
<!-- Node26&#45;&gt;Node27 -->
<g id="edge24" class="edge">
<title>Node26&#45;&gt;Node27</title>
<path fill="none" stroke="midnightblue" d="M380.97,-238C402.93,-238 429.32,-238 451.71,-238"/>
<polygon fill="midnightblue" stroke="midnightblue" points="380.9,-234.5 370.9,-238 380.9,-241.5 380.9,-234.5"/>
</g>
<!-- Node29 -->
<g id="node27" class="node">
<title>Node29</title>
<g id="a_node27"><a xlink:href="class_ogre_1_1_skeleton_instance.html" target="_top" xlink:title="A SkeletonInstance is a single instance of a Skeleton used by a world object.">
<polygon fill="none" stroke="black" points="437,-190.5 437,-209.5 566,-209.5 566,-190.5 437,-190.5"/>
<text text-anchor="middle" x="501.5" y="-197.5" font-family="Helvetica,sans-Serif" font-size="10.00">Ogre::SkeletonInstance</text>
</a>
</g>
</g>
<!-- Node28&#45;&gt;Node29 -->
<g id="edge26" class="edge">
<title>Node28&#45;&gt;Node29</title>
<path fill="none" stroke="midnightblue" d="M389.14,-200C404.4,-200 421.16,-200 436.95,-200"/>
<polygon fill="midnightblue" stroke="midnightblue" points="388.85,-196.5 378.85,-200 388.85,-203.5 388.85,-196.5"/>
</g>
<!-- Node31 -->
<g id="node29" class="node">
<title>Node31</title>
<g id="a_node29"><a xlink:href="class_ogre_1_1_d3_d11_texture.html" target="_top" xlink:title="Specialisation of Texture for D3D11.">
<polygon fill="none" stroke="black" points="444,-152.5 444,-171.5 559,-171.5 559,-152.5 444,-152.5"/>
<text text-anchor="middle" x="501.5" y="-159.5" font-family="Helvetica,sans-Serif" font-size="10.00">Ogre::D3D11Texture</text>
</a>
</g>
</g>
<!-- Node30&#45;&gt;Node31 -->
<g id="edge28" class="edge">
<title>Node30&#45;&gt;Node31</title>
<path fill="none" stroke="midnightblue" d="M364.58,-118.9C381.62,-126.69 403.73,-136.18 424,-143 434.51,-146.53 446.02,-149.73 456.86,-152.46"/>
<polygon fill="midnightblue" stroke="midnightblue" points="365.72,-115.57 355.18,-114.54 362.78,-121.92 365.72,-115.57"/>
</g>
<!-- Node32 -->
<g id="node30" class="node">
<title>Node32</title>
<g id="a_node30"><a xlink:href="class_ogre_1_1_d3_d9_texture.html" target="_top" xlink:title=" ">
<polygon fill="none" stroke="black" points="447,-114.5 447,-133.5 556,-133.5 556,-114.5 447,-114.5"/>
<text text-anchor="middle" x="501.5" y="-121.5" font-family="Helvetica,sans-Serif" font-size="10.00">Ogre::D3D9Texture</text>
</a>
</g>
</g>
<!-- Node30&#45;&gt;Node32 -->
<g id="edge29" class="edge">
<title>Node30&#45;&gt;Node32</title>
<path fill="none" stroke="midnightblue" d="M385.96,-110.81C405.24,-113.03 427.28,-115.57 446.84,-117.82"/>
<polygon fill="midnightblue" stroke="midnightblue" points="386.2,-107.31 375.86,-109.65 385.4,-114.27 386.2,-107.31"/>
</g>
<!-- Node33 -->
<g id="node31" class="node">
<title>Node33</title>
<g id="a_node31"><a xlink:href="class_ogre_1_1_g_l_texture_common.html" target="_top" xlink:title=" ">
<polygon fill="none" stroke="black" points="432.5,-76.5 432.5,-95.5 570.5,-95.5 570.5,-76.5 432.5,-76.5"/>
<text text-anchor="middle" x="501.5" y="-83.5" font-family="Helvetica,sans-Serif" font-size="10.00">Ogre::GLTextureCommon</text>
</a>
</g>
</g>
<!-- Node30&#45;&gt;Node33 -->
<g id="edge30" class="edge">
<title>Node30&#45;&gt;Node33</title>
<path fill="none" stroke="midnightblue" d="M386.15,-99.17C400.71,-97.49 416.83,-95.63 432.26,-93.86"/>
<polygon fill="midnightblue" stroke="midnightblue" points="385.4,-95.73 375.86,-100.35 386.2,-102.69 385.4,-95.73"/>
</g>
<!-- Node37 -->
<g id="node35" class="node">
<title>Node37</title>
<g id="a_node35"><a xlink:href="class_ogre_1_1_metal_texture.html" target="_top" xlink:title=" ">
<polygon fill="none" stroke="black" points="446.5,-38.5 446.5,-57.5 556.5,-57.5 556.5,-38.5 446.5,-38.5"/>
<text text-anchor="middle" x="501.5" y="-45.5" font-family="Helvetica,sans-Serif" font-size="10.00">Ogre::MetalTexture</text>
</a>
</g>
</g>
<!-- Node30&#45;&gt;Node37 -->
<g id="edge34" class="edge">
<title>Node30&#45;&gt;Node37</title>
<path fill="none" stroke="midnightblue" d="M364.58,-91.1C381.62,-83.31 403.73,-73.82 424,-67 434.51,-63.47 446.02,-60.27 456.86,-57.54"/>
<polygon fill="midnightblue" stroke="midnightblue" points="362.78,-88.08 355.18,-95.46 365.72,-94.43 362.78,-88.08"/>
</g>
<!-- Node39 -->
<g id="node37" class="node">
<title>Node39</title>
<g id="a_node37"><a xlink:href="class_ogre_1_1_tiny_texture.html" target="_top" xlink:title=" ">
<polygon fill="none" stroke="black" points="450.5,-0.5 450.5,-19.5 552.5,-19.5 552.5,-0.5 450.5,-0.5"/>
<text text-anchor="middle" x="501.5" y="-7.5" font-family="Helvetica,sans-Serif" font-size="10.00">Ogre::TinyTexture</text>
</a>
</g>
</g>
<!-- Node30&#45;&gt;Node39 -->
<g id="edge36" class="edge">
<title>Node30&#45;&gt;Node39</title>
<path fill="none" stroke="midnightblue" d="M350.87,-87.73C367.3,-70.34 394.92,-44.01 424,-29 432.15,-24.79 441.27,-21.49 450.3,-18.9"/>
<polygon fill="midnightblue" stroke="midnightblue" points="347.96,-85.73 343.75,-95.46 353.1,-90.48 347.96,-85.73"/>
</g>
<!-- Node34 -->
<g id="node32" class="node">
<title>Node34</title>
<g id="a_node32"><a xlink:href="class_ogre_1_1_g_l3_plus_texture.html" target="_top" xlink:title=" ">
<polygon fill="none" stroke="black" points="634.5,-129.5 634.5,-148.5 755.5,-148.5 755.5,-129.5 634.5,-129.5"/>
<text text-anchor="middle" x="695" y="-136.5" font-family="Helvetica,sans-Serif" font-size="10.00">Ogre::GL3PlusTexture</text>
</a>
</g>
</g>
<!-- Node33&#45;&gt;Node34 -->
<g id="edge31" class="edge">
<title>Node33&#45;&gt;Node34</title>
<path fill="none" stroke="midnightblue" d="M555.62,-98.09C563.51,-100.2 571.51,-102.52 579,-105 595.46,-110.44 598.52,-114.62 615,-120 625.86,-123.54 637.76,-126.75 648.95,-129.47"/>
<polygon fill="midnightblue" stroke="midnightblue" points="556.27,-94.64 545.71,-95.52 554.52,-101.42 556.27,-94.64"/>
</g>
<!-- Node35 -->
<g id="node33" class="node">
<title>Node35</title>
<g id="a_node33"><a xlink:href="class_ogre_1_1_g_l_e_s2_texture.html" target="_top" xlink:title=" ">
<polygon fill="none" stroke="black" points="638.5,-91.5 638.5,-110.5 751.5,-110.5 751.5,-91.5 638.5,-91.5"/>
<text text-anchor="middle" x="695" y="-98.5" font-family="Helvetica,sans-Serif" font-size="10.00">Ogre::GLES2Texture</text>
</a>
</g>
</g>
<!-- Node33&#45;&gt;Node35 -->
<g id="edge32" class="edge">
<title>Node33&#45;&gt;Node35</title>
<path fill="none" stroke="midnightblue" d="M580.59,-92.12C599.99,-93.64 620.4,-95.23 638.46,-96.65"/>
<polygon fill="midnightblue" stroke="midnightblue" points="580.8,-88.62 570.55,-91.33 580.25,-95.6 580.8,-88.62"/>
</g>
<!-- Node36 -->
<g id="node34" class="node">
<title>Node36</title>
<g id="a_node34"><a xlink:href="class_ogre_1_1_g_l_texture.html" target="_top" xlink:title=" ">
<polygon fill="none" stroke="black" points="648,-53.5 648,-72.5 742,-72.5 742,-53.5 648,-53.5"/>
<text text-anchor="middle" x="695" y="-60.5" font-family="Helvetica,sans-Serif" font-size="10.00">Ogre::GLTexture</text>
</a>
</g>
</g>
<!-- Node33&#45;&gt;Node36 -->
<g id="edge33" class="edge">
<title>Node33&#45;&gt;Node36</title>
<path fill="none" stroke="midnightblue" d="M580.58,-76.62C603.39,-73.88 627.6,-70.98 647.76,-68.55"/>
<polygon fill="midnightblue" stroke="midnightblue" points="580.07,-73.16 570.55,-77.83 580.9,-80.11 580.07,-73.16"/>
</g>
<!-- Node38 -->
<g id="node36" class="node">
<title>Node38</title>
<g id="a_node36"><a xlink:href="class_ogre_1_1_metal_depth_texture.html" target="_top" xlink:title=" ">
<polygon fill="none" stroke="black" points="625.5,-15.5 625.5,-34.5 764.5,-34.5 764.5,-15.5 625.5,-15.5"/>
<text text-anchor="middle" x="695" y="-22.5" font-family="Helvetica,sans-Serif" font-size="10.00">Ogre::MetalDepthTexture</text>
</a>
</g>
</g>
<!-- Node37&#45;&gt;Node38 -->
<g id="edge35" class="edge">
<title>Node37&#45;&gt;Node38</title>
<path fill="none" stroke="midnightblue" d="M566.58,-40.3C585.45,-38.04 606.17,-35.55 625.32,-33.25"/>
<polygon fill="midnightblue" stroke="midnightblue" points="566.12,-36.83 556.61,-41.5 566.95,-43.78 566.12,-36.83"/>
</g>
</g>
</svg>
