<?xml version="1.0" encoding="UTF-8" standalone="no"?>
<!DOCTYPE svg PUBLIC "-//W3C//DTD SVG 1.1//EN"
 "http://www.w3.org/Graphics/SVG/1.1/DTD/svg11.dtd">
<!-- Generated by graphviz version 2.43.0 (0)
 -->
<!-- Title: Graphical Class Hierarchy Pages: 1 -->
<svg width="393pt" height="674pt"
 viewBox="0.00 0.00 393.00 674.00" xmlns="http://www.w3.org/2000/svg" xmlns:xlink="http://www.w3.org/1999/xlink">
<g id="graph0" class="graph" transform="scale(1 1) rotate(0) translate(4 670)">
<title>Graphical Class Hierarchy</title>
<!-- Node506 -->
<g id="node1" class="node">
<title>Node506</title>
<g id="a_node1"><a xlink:title=" ">
<polygon fill="none" stroke="#bfbfbf" points="0,-323.5 0,-342.5 71,-342.5 71,-323.5 0,-323.5"/>
<text text-anchor="middle" x="35.5" y="-330.5" font-family="Helvetica,sans-Serif" font-size="10.00">PluginAlloc</text>
</a>
</g>
</g>
<!-- Node0 -->
<g id="node2" class="node">
<title>Node0</title>
<g id="a_node2"><a xlink:href="class_ogre_1_1_plugin.html" target="_top" xlink:title="Class defining a generic OGRE plugin.">
<polygon fill="none" stroke="black" points="107,-323.5 107,-342.5 183,-342.5 183,-323.5 107,-323.5"/>
<text text-anchor="middle" x="145" y="-330.5" font-family="Helvetica,sans-Serif" font-size="10.00">Ogre::Plugin</text>
</a>
</g>
</g>
<!-- Node506&#45;&gt;Node0 -->
<g id="edge1" class="edge">
<title>Node506&#45;&gt;Node0</title>
<path fill="none" stroke="midnightblue" d="M81.28,-333C89.79,-333 98.62,-333 106.86,-333"/>
<polygon fill="midnightblue" stroke="midnightblue" points="81.11,-329.5 71.11,-333 81.11,-336.5 81.11,-329.5"/>
</g>
<!-- Node1 -->
<g id="node3" class="node">
<title>Node1</title>
<g id="a_node3"><a xlink:href="class_ogre_1_1_assimp_plugin.html" target="_top" xlink:title=" ">
<polygon fill="none" stroke="black" points="246,-646.5 246,-665.5 358,-665.5 358,-646.5 246,-646.5"/>
<text text-anchor="middle" x="302" y="-653.5" font-family="Helvetica,sans-Serif" font-size="10.00">Ogre::AssimpPlugin</text>
</a>
</g>
</g>
<!-- Node0&#45;&gt;Node1 -->
<g id="edge2" class="edge">
<title>Node0&#45;&gt;Node1</title>
<path fill="none" stroke="midnightblue" d="M148.08,-352.99C154.83,-414.05 178.09,-596.42 219,-637 226.37,-644.31 235.95,-649.02 245.96,-652.02"/>
<polygon fill="midnightblue" stroke="midnightblue" points="151.53,-352.33 146.98,-342.77 144.57,-353.08 151.53,-352.33"/>
</g>
<!-- Node2 -->
<g id="node4" class="node">
<title>Node2</title>
<g id="a_node4"><a xlink:href="class_ogre_1_1_bsp_scene_manager_plugin.html" target="_top" xlink:title="Plugin instance for BSPSceneManager.">
<polygon fill="none" stroke="black" points="219,-608.5 219,-627.5 385,-627.5 385,-608.5 219,-608.5"/>
<text text-anchor="middle" x="302" y="-615.5" font-family="Helvetica,sans-Serif" font-size="10.00">Ogre::BspSceneManagerPlugin</text>
</a>
</g>
</g>
<!-- Node0&#45;&gt;Node2 -->
<g id="edge3" class="edge">
<title>Node0&#45;&gt;Node2</title>
<path fill="none" stroke="midnightblue" d="M148.76,-352.65C156.95,-408.14 182.81,-564.24 219,-599 222.9,-602.75 227.38,-605.81 232.2,-608.3"/>
<polygon fill="midnightblue" stroke="midnightblue" points="152.22,-352.08 147.32,-342.69 145.29,-353.09 152.22,-352.08"/>
</g>
<!-- Node3 -->
<g id="node5" class="node">
<title>Node3</title>
<g id="a_node5"><a xlink:href="class_ogre_1_1_cg_plugin.html" target="_top" xlink:title="Plugin instance for Cg Program Manager.">
<polygon fill="none" stroke="black" points="257.5,-570.5 257.5,-589.5 346.5,-589.5 346.5,-570.5 257.5,-570.5"/>
<text text-anchor="middle" x="302" y="-577.5" font-family="Helvetica,sans-Serif" font-size="10.00">Ogre::CgPlugin</text>
</a>
</g>
</g>
<!-- Node0&#45;&gt;Node3 -->
<g id="edge4" class="edge">
<title>Node0&#45;&gt;Node3</title>
<path fill="none" stroke="midnightblue" d="M146.17,-352.8C147.68,-397.08 157.82,-504.65 219,-561 229.43,-570.6 243.72,-575.66 257.46,-578.23"/>
<polygon fill="midnightblue" stroke="midnightblue" points="149.66,-352.44 145.94,-342.52 142.67,-352.6 149.66,-352.44"/>
</g>
<!-- Node4 -->
<g id="node6" class="node">
<title>Node4</title>
<g id="a_node6"><a xlink:href="class_ogre_1_1_d3_d11_plugin.html" target="_top" xlink:title="Plugin instance for D3D11 Manager.">
<polygon fill="none" stroke="black" points="247.5,-532.5 247.5,-551.5 356.5,-551.5 356.5,-532.5 247.5,-532.5"/>
<text text-anchor="middle" x="302" y="-539.5" font-family="Helvetica,sans-Serif" font-size="10.00">Ogre::D3D11Plugin</text>
</a>
</g>
</g>
<!-- Node0&#45;&gt;Node4 -->
<g id="edge5" class="edge">
<title>Node0&#45;&gt;Node4</title>
<path fill="none" stroke="midnightblue" d="M147.62,-352.65C151.9,-391.41 167.07,-477.83 219,-523 226.94,-529.9 236.9,-534.43 247.11,-537.36"/>
<polygon fill="midnightblue" stroke="midnightblue" points="151.1,-352.27 146.64,-342.66 144.13,-352.95 151.1,-352.27"/>
</g>
<!-- Node5 -->
<g id="node7" class="node">
<title>Node5</title>
<g id="a_node7"><a xlink:href="class_ogre_1_1_d3_d9_plugin.html" target="_top" xlink:title="Plugin instance for D3D9 Manager.">
<polygon fill="none" stroke="black" points="250.5,-494.5 250.5,-513.5 353.5,-513.5 353.5,-494.5 250.5,-494.5"/>
<text text-anchor="middle" x="302" y="-501.5" font-family="Helvetica,sans-Serif" font-size="10.00">Ogre::D3D9Plugin</text>
</a>
</g>
</g>
<!-- Node0&#45;&gt;Node5 -->
<g id="edge6" class="edge">
<title>Node0&#45;&gt;Node5</title>
<path fill="none" stroke="midnightblue" d="M149.74,-352.74C157.03,-385.48 176.28,-450.78 219,-485 227.9,-492.13 238.98,-496.67 250.1,-499.55"/>
<polygon fill="midnightblue" stroke="midnightblue" points="153.1,-351.7 147.65,-342.62 146.25,-353.12 153.1,-351.7"/>
</g>
<!-- Node6 -->
<g id="node8" class="node">
<title>Node6</title>
<g id="a_node8"><a xlink:href="class_ogre_1_1_dot_scene_plugin.html" target="_top" xlink:title=" ">
<polygon fill="none" stroke="black" points="241,-456.5 241,-475.5 363,-475.5 363,-456.5 241,-456.5"/>
<text text-anchor="middle" x="302" y="-463.5" font-family="Helvetica,sans-Serif" font-size="10.00">Ogre::DotScenePlugin</text>
</a>
</g>
</g>
<!-- Node0&#45;&gt;Node6 -->
<g id="edge7" class="edge">
<title>Node0&#45;&gt;Node6</title>
<path fill="none" stroke="midnightblue" d="M152.91,-352.17C163.21,-377.88 185.08,-423.06 219,-447 225.57,-451.63 233.1,-455.15 240.87,-457.82"/>
<polygon fill="midnightblue" stroke="midnightblue" points="156.16,-350.84 149.32,-342.75 149.62,-353.34 156.16,-350.84"/>
</g>
<!-- Node7 -->
<g id="node9" class="node">
<title>Node7</title>
<g id="a_node9"><a xlink:href="class_ogre_1_1_free_image_plugin.html" target="_top" xlink:title=" ">
<polygon fill="none" stroke="black" points="238,-418.5 238,-437.5 366,-437.5 366,-418.5 238,-418.5"/>
<text text-anchor="middle" x="302" y="-425.5" font-family="Helvetica,sans-Serif" font-size="10.00">Ogre::FreeImagePlugin</text>
</a>
</g>
</g>
<!-- Node0&#45;&gt;Node7 -->
<g id="edge8" class="edge">
<title>Node0&#45;&gt;Node7</title>
<path fill="none" stroke="midnightblue" d="M158.34,-350.92C171.37,-368.44 193.53,-394.53 219,-409 225.86,-412.9 233.48,-416 241.22,-418.46"/>
<polygon fill="midnightblue" stroke="midnightblue" points="161.07,-348.72 152.39,-342.64 155.38,-352.8 161.07,-348.72"/>
</g>
<!-- Node8 -->
<g id="node10" class="node">
<title>Node8</title>
<g id="a_node10"><a xlink:href="class_ogre_1_1_g_l3_plus_plugin.html" target="_top" xlink:title="Plugin instance for GL3Plus Manager.">
<polygon fill="none" stroke="black" points="244.5,-380.5 244.5,-399.5 359.5,-399.5 359.5,-380.5 244.5,-380.5"/>
<text text-anchor="middle" x="302" y="-387.5" font-family="Helvetica,sans-Serif" font-size="10.00">Ogre::GL3PlusPlugin</text>
</a>
</g>
</g>
<!-- Node0&#45;&gt;Node8 -->
<g id="edge9" class="edge">
<title>Node0&#45;&gt;Node8</title>
<path fill="none" stroke="midnightblue" d="M170.58,-347.78C184.41,-355.59 202.23,-364.81 219,-371 229.01,-374.7 239.97,-377.83 250.54,-380.42"/>
<polygon fill="midnightblue" stroke="midnightblue" points="172.11,-344.63 161.7,-342.66 168.61,-350.69 172.11,-344.63"/>
</g>
<!-- Node9 -->
<g id="node11" class="node">
<title>Node9</title>
<g id="a_node11"><a xlink:href="class_ogre_1_1_g_l_e_s2_plugin.html" target="_top" xlink:title="Plugin instance for GL ES 2 Manager.">
<polygon fill="none" stroke="black" points="248.5,-342.5 248.5,-361.5 355.5,-361.5 355.5,-342.5 248.5,-342.5"/>
<text text-anchor="middle" x="302" y="-349.5" font-family="Helvetica,sans-Serif" font-size="10.00">Ogre::GLES2Plugin</text>
</a>
</g>
</g>
<!-- Node0&#45;&gt;Node9 -->
<g id="edge10" class="edge">
<title>Node0&#45;&gt;Node9</title>
<path fill="none" stroke="midnightblue" d="M193.09,-338.77C210.54,-340.91 230.43,-343.35 248.35,-345.55"/>
<polygon fill="midnightblue" stroke="midnightblue" points="193.48,-335.29 183.13,-337.55 192.63,-342.24 193.48,-335.29"/>
</g>
<!-- Node10 -->
<g id="node12" class="node">
<title>Node10</title>
<g id="a_node12"><a xlink:href="class_ogre_1_1_g_l_plugin.html" target="_top" xlink:title="Plugin instance for GL Manager.">
<polygon fill="none" stroke="black" points="257.5,-304.5 257.5,-323.5 346.5,-323.5 346.5,-304.5 257.5,-304.5"/>
<text text-anchor="middle" x="302" y="-311.5" font-family="Helvetica,sans-Serif" font-size="10.00">Ogre::GLPlugin</text>
</a>
</g>
</g>
<!-- Node0&#45;&gt;Node10 -->
<g id="edge11" class="edge">
<title>Node0&#45;&gt;Node10</title>
<path fill="none" stroke="midnightblue" d="M193.15,-327.22C213.56,-324.72 237.3,-321.81 257.3,-319.36"/>
<polygon fill="midnightblue" stroke="midnightblue" points="192.63,-323.76 183.13,-328.45 193.48,-330.71 192.63,-323.76"/>
</g>
<!-- Node11 -->
<g id="node13" class="node">
<title>Node11</title>
<g id="a_node13"><a xlink:href="class_ogre_1_1_g_l_s_lang_plugin.html" target="_top" xlink:title="Plugin instance for Cg Program Manager.">
<polygon fill="none" stroke="black" points="243,-266.5 243,-285.5 361,-285.5 361,-266.5 243,-266.5"/>
<text text-anchor="middle" x="302" y="-273.5" font-family="Helvetica,sans-Serif" font-size="10.00">Ogre::GLSLangPlugin</text>
</a>
</g>
</g>
<!-- Node0&#45;&gt;Node11 -->
<g id="edge12" class="edge">
<title>Node0&#45;&gt;Node11</title>
<path fill="none" stroke="midnightblue" d="M170.58,-318.22C184.41,-310.41 202.23,-301.19 219,-295 229.01,-291.3 239.97,-288.17 250.54,-285.58"/>
<polygon fill="midnightblue" stroke="midnightblue" points="168.61,-315.31 161.7,-323.34 172.11,-321.37 168.61,-315.31"/>
</g>
<!-- Node12 -->
<g id="node14" class="node">
<title>Node12</title>
<g id="a_node14"><a xlink:href="class_ogre_1_1_metal_plugin.html" target="_top" xlink:title="Plugin instance for Metal Manager.">
<polygon fill="none" stroke="black" points="250,-228.5 250,-247.5 354,-247.5 354,-228.5 250,-228.5"/>
<text text-anchor="middle" x="302" y="-235.5" font-family="Helvetica,sans-Serif" font-size="10.00">Ogre::MetalPlugin</text>
</a>
</g>
</g>
<!-- Node0&#45;&gt;Node12 -->
<g id="edge13" class="edge">
<title>Node0&#45;&gt;Node12</title>
<path fill="none" stroke="midnightblue" d="M158.34,-315.08C171.37,-297.56 193.53,-271.47 219,-257 228.4,-251.66 239.22,-247.82 249.85,-245.06"/>
<polygon fill="midnightblue" stroke="midnightblue" points="155.38,-313.2 152.39,-323.36 161.07,-317.28 155.38,-313.2"/>
</g>
<!-- Node13 -->
<g id="node15" class="node">
<title>Node13</title>
<g id="a_node15"><a xlink:href="class_ogre_1_1_octree_plugin.html" target="_top" xlink:title="Plugin instance for Octree Manager.">
<polygon fill="none" stroke="black" points="248,-190.5 248,-209.5 356,-209.5 356,-190.5 248,-190.5"/>
<text text-anchor="middle" x="302" y="-197.5" font-family="Helvetica,sans-Serif" font-size="10.00">Ogre::OctreePlugin</text>
</a>
</g>
</g>
<!-- Node0&#45;&gt;Node13 -->
<g id="edge14" class="edge">
<title>Node0&#45;&gt;Node13</title>
<path fill="none" stroke="midnightblue" d="M152.91,-313.83C163.21,-288.12 185.08,-242.94 219,-219 227.48,-213.02 237.56,-208.89 247.71,-206.05"/>
<polygon fill="midnightblue" stroke="midnightblue" points="149.62,-312.66 149.32,-323.25 156.16,-315.16 149.62,-312.66"/>
</g>
<!-- Node14 -->
<g id="node16" class="node">
<title>Node14</title>
<g id="a_node16"><a xlink:href="class_ogre_1_1_octree_zone_plugin.html" target="_top" xlink:title="Plugin instance for OctreeZone.">
<polygon fill="none" stroke="black" points="235.5,-152.5 235.5,-171.5 368.5,-171.5 368.5,-152.5 235.5,-152.5"/>
<text text-anchor="middle" x="302" y="-159.5" font-family="Helvetica,sans-Serif" font-size="10.00">Ogre::OctreeZonePlugin</text>
</a>
</g>
</g>
<!-- Node0&#45;&gt;Node14 -->
<g id="edge15" class="edge">
<title>Node0&#45;&gt;Node14</title>
<path fill="none" stroke="midnightblue" d="M149.74,-313.26C157.03,-280.52 176.28,-215.22 219,-181 223.9,-177.07 229.47,-173.93 235.35,-171.41"/>
<polygon fill="midnightblue" stroke="midnightblue" points="146.25,-312.88 147.65,-323.38 153.1,-314.3 146.25,-312.88"/>
</g>
<!-- Node15 -->
<g id="node17" class="node">
<title>Node15</title>
<g id="a_node17"><a xlink:href="class_ogre_1_1_particle_f_x_plugin.html" target="_top" xlink:title="Plugin instance for ParticleFX Manager.">
<polygon fill="none" stroke="black" points="239.5,-114.5 239.5,-133.5 364.5,-133.5 364.5,-114.5 239.5,-114.5"/>
<text text-anchor="middle" x="302" y="-121.5" font-family="Helvetica,sans-Serif" font-size="10.00">Ogre::ParticleFXPlugin</text>
</a>
</g>
</g>
<!-- Node0&#45;&gt;Node15 -->
<g id="edge16" class="edge">
<title>Node0&#45;&gt;Node15</title>
<path fill="none" stroke="midnightblue" d="M147.62,-313.35C151.9,-274.59 167.07,-188.17 219,-143 224.84,-137.92 231.78,-134.12 239.11,-131.31"/>
<polygon fill="midnightblue" stroke="midnightblue" points="144.13,-313.05 146.64,-323.34 151.1,-313.73 144.13,-313.05"/>
</g>
<!-- Node16 -->
<g id="node18" class="node">
<title>Node16</title>
<g id="a_node18"><a xlink:href="class_ogre_1_1_p_c_z_plugin.html" target="_top" xlink:title="Plugin instance for PCZ Manager.">
<polygon fill="none" stroke="black" points="254.5,-76.5 254.5,-95.5 349.5,-95.5 349.5,-76.5 254.5,-76.5"/>
<text text-anchor="middle" x="302" y="-83.5" font-family="Helvetica,sans-Serif" font-size="10.00">Ogre::PCZPlugin</text>
</a>
</g>
</g>
<!-- Node0&#45;&gt;Node16 -->
<g id="edge17" class="edge">
<title>Node0&#45;&gt;Node16</title>
<path fill="none" stroke="midnightblue" d="M146.17,-313.2C147.68,-268.92 157.82,-161.35 219,-105 228.67,-96.09 241.68,-91.1 254.48,-88.37"/>
<polygon fill="midnightblue" stroke="midnightblue" points="142.67,-313.4 145.94,-323.48 149.66,-313.56 142.67,-313.4"/>
</g>
<!-- Node17 -->
<g id="node19" class="node">
<title>Node17</title>
<g id="a_node19"><a xlink:href="class_ogre_1_1_s_t_b_i_plugin.html" target="_top" xlink:title=" ">
<polygon fill="none" stroke="black" points="253,-38.5 253,-57.5 351,-57.5 351,-38.5 253,-38.5"/>
<text text-anchor="middle" x="302" y="-45.5" font-family="Helvetica,sans-Serif" font-size="10.00">Ogre::STBIPlugin</text>
</a>
</g>
</g>
<!-- Node0&#45;&gt;Node17 -->
<g id="edge18" class="edge">
<title>Node0&#45;&gt;Node17</title>
<path fill="none" stroke="midnightblue" d="M148.76,-313.35C156.95,-257.86 182.81,-101.76 219,-67 228.17,-58.19 240.58,-53.18 252.96,-50.39"/>
<polygon fill="midnightblue" stroke="midnightblue" points="145.29,-312.91 147.32,-323.31 152.22,-313.92 145.29,-312.91"/>
</g>
<!-- Node18 -->
<g id="node20" class="node">
<title>Node18</title>
<g id="a_node20"><a xlink:href="class_ogre_1_1_tiny_plugin.html" target="_top" xlink:title="Plugin instance for Tiny Manager.">
<polygon fill="none" stroke="black" points="254,-0.5 254,-19.5 350,-19.5 350,-0.5 254,-0.5"/>
<text text-anchor="middle" x="302" y="-7.5" font-family="Helvetica,sans-Serif" font-size="10.00">Ogre::TinyPlugin</text>
</a>
</g>
</g>
<!-- Node0&#45;&gt;Node18 -->
<g id="edge19" class="edge">
<title>Node0&#45;&gt;Node18</title>
<path fill="none" stroke="midnightblue" d="M148.08,-313.01C154.83,-251.95 178.09,-69.58 219,-29 228.23,-19.84 240.96,-14.75 253.63,-12.01"/>
<polygon fill="midnightblue" stroke="midnightblue" points="144.57,-312.92 146.98,-323.23 151.53,-313.67 144.57,-312.92"/>
</g>
</g>
</svg>
