<?xml version="1.0" encoding="UTF-8" standalone="no"?>
<!DOCTYPE svg PUBLIC "-//W3C//DTD SVG 1.1//EN"
 "http://www.w3.org/Graphics/SVG/1.1/DTD/svg11.dtd">
<!-- Generated by graphviz version 2.43.0 (0)
 -->
<!-- Title: Graphical Class Hierarchy Pages: 1 -->
<svg width="480pt" height="496pt"
 viewBox="0.00 0.00 480.00 495.50" xmlns="http://www.w3.org/2000/svg" xmlns:xlink="http://www.w3.org/1999/xlink">
<g id="graph0" class="graph" transform="scale(1 1) rotate(0) translate(4 491.5)">
<title>Graphical Class Hierarchy</title>
<!-- Node1165 -->
<g id="node1" class="node">
<title>Node1165</title>
<g id="a_node1"><a xlink:title=" ">
<polygon fill="none" stroke="#bfbfbf" points="0,-221 0,-240 77,-240 77,-221 0,-221"/>
<text text-anchor="middle" x="38.5" y="-228" font-family="Helvetica,sans-Serif" font-size="10.00">FactoryAlloc</text>
</a>
</g>
</g>
<!-- Node0 -->
<g id="node2" class="node">
<title>Node0</title>
<g id="a_node2"><a xlink:href="class_ogre_1_1_gpu_program_factory.html" target="_top" xlink:title="Interface definition for factories of GpuProgram.">
<polygon fill="none" stroke="black" points="113,-240 113,-259 256,-259 256,-240 113,-240"/>
<text text-anchor="middle" x="184.5" y="-247" font-family="Helvetica,sans-Serif" font-size="10.00">Ogre::GpuProgramFactory</text>
</a>
</g>
</g>
<!-- Node1165&#45;&gt;Node0 -->
<g id="edge1" class="edge">
<title>Node1165&#45;&gt;Node0</title>
<path fill="none" stroke="midnightblue" d="M87.38,-236.82C95.54,-237.89 104.16,-239.03 112.76,-240.17"/>
<polygon fill="midnightblue" stroke="midnightblue" points="87.71,-233.33 77.33,-235.49 86.79,-240.27 87.71,-233.33"/>
</g>
<!-- Node1180 -->
<g id="node16" class="node">
<title>Node1180</title>
<g id="a_node16"><a xlink:href="class_ogre_1_1_instance_manager.html" target="_top" xlink:title="This is the main starting point for the new instancing system.">
<polygon fill="none" stroke="black" points="119.5,-202 119.5,-221 249.5,-221 249.5,-202 119.5,-202"/>
<text text-anchor="middle" x="184.5" y="-209" font-family="Helvetica,sans-Serif" font-size="10.00">Ogre::InstanceManager</text>
</a>
</g>
</g>
<!-- Node1165&#45;&gt;Node1180 -->
<g id="edge15" class="edge">
<title>Node1165&#45;&gt;Node1180</title>
<path fill="none" stroke="midnightblue" d="M87.34,-224.19C97.64,-222.83 108.67,-221.37 119.47,-219.95"/>
<polygon fill="midnightblue" stroke="midnightblue" points="86.79,-220.73 77.33,-225.51 87.71,-227.67 86.79,-220.73"/>
</g>
<!-- Node1 -->
<g id="node3" class="node">
<title>Node1</title>
<g id="a_node3"><a xlink:href="class_ogre_1_1_cg_program_factory.html" target="_top" xlink:title="Factory class for Cg programs.">
<polygon fill="none" stroke="black" points="314,-468 314,-487 450,-487 450,-468 314,-468"/>
<text text-anchor="middle" x="382" y="-475" font-family="Helvetica,sans-Serif" font-size="10.00">Ogre::CgProgramFactory</text>
</a>
</g>
</g>
<!-- Node0&#45;&gt;Node1 -->
<g id="edge2" class="edge">
<title>Node0&#45;&gt;Node1</title>
<path fill="none" stroke="midnightblue" d="M189.53,-269.08C199.23,-310.94 227.96,-409.32 292,-458.5 298.52,-463.5 306.06,-467.26 313.94,-470.07"/>
<polygon fill="midnightblue" stroke="midnightblue" points="192.95,-268.3 187.38,-259.29 186.11,-269.81 192.95,-268.3"/>
</g>
<!-- Node2 -->
<g id="node4" class="node">
<title>Node2</title>
<g id="a_node4"><a xlink:href="struct_ogre_1_1_create_callback_wrapper.html" target="_top" xlink:title=" ">
<polygon fill="none" stroke="black" points="301.5,-430 301.5,-449 462.5,-449 462.5,-430 301.5,-430"/>
<text text-anchor="middle" x="382" y="-437" font-family="Helvetica,sans-Serif" font-size="10.00">Ogre::CreateCallbackWrapper</text>
</a>
</g>
</g>
<!-- Node0&#45;&gt;Node2 -->
<g id="edge3" class="edge">
<title>Node0&#45;&gt;Node2</title>
<path fill="none" stroke="midnightblue" d="M191.81,-268.91C204.57,-304.92 237,-381.89 292,-420.5 297.43,-424.31 303.48,-427.39 309.79,-429.86"/>
<polygon fill="midnightblue" stroke="midnightblue" points="195.02,-267.48 188.48,-259.14 188.39,-269.74 195.02,-267.48"/>
</g>
<!-- Node3 -->
<g id="node5" class="node">
<title>Node3</title>
<g id="a_node5"><a xlink:href="class_ogre_1_1_d3_d11_h_l_s_l_program_factory.html" target="_top" xlink:title="Factory class for D3D11 HLSL programs.">
<polygon fill="none" stroke="black" points="292,-392 292,-411 472,-411 472,-392 292,-392"/>
<text text-anchor="middle" x="382" y="-399" font-family="Helvetica,sans-Serif" font-size="10.00">Ogre::D3D11HLSLProgramFactory</text>
</a>
</g>
</g>
<!-- Node0&#45;&gt;Node3 -->
<g id="edge4" class="edge">
<title>Node0&#45;&gt;Node3</title>
<path fill="none" stroke="midnightblue" d="M194.97,-268.23C210.83,-297.54 245.61,-353.87 292,-382.5 298.32,-386.4 305.32,-389.51 312.53,-391.98"/>
<polygon fill="midnightblue" stroke="midnightblue" points="197.91,-266.3 190.17,-259.08 191.72,-269.56 197.91,-266.3"/>
</g>
<!-- Node4 -->
<g id="node6" class="node">
<title>Node4</title>
<g id="a_node6"><a xlink:href="class_ogre_1_1_d3_d9_gpu_program_manager.html" target="_top" xlink:title=" ">
<polygon fill="none" stroke="black" points="294,-354 294,-373 470,-373 470,-354 294,-354"/>
<text text-anchor="middle" x="382" y="-361" font-family="Helvetica,sans-Serif" font-size="10.00">Ogre::D3D9GpuProgramManager</text>
</a>
</g>
</g>
<!-- Node0&#45;&gt;Node4 -->
<g id="edge5" class="edge">
<title>Node0&#45;&gt;Node4</title>
<path fill="none" stroke="midnightblue" d="M199.76,-266.86C218.56,-288.53 253.76,-325.11 292,-344.5 299.61,-348.36 307.97,-351.44 316.42,-353.89"/>
<polygon fill="midnightblue" stroke="midnightblue" points="202.31,-264.45 193.17,-259.09 196.97,-268.98 202.31,-264.45"/>
</g>
<!-- Node5 -->
<g id="node7" class="node">
<title>Node5</title>
<g id="a_node7"><a xlink:href="class_ogre_1_1_d3_d9_h_l_s_l_program_factory.html" target="_top" xlink:title="Factory class for D3D9 HLSL programs.">
<polygon fill="none" stroke="black" points="295,-316 295,-335 469,-335 469,-316 295,-316"/>
<text text-anchor="middle" x="382" y="-323" font-family="Helvetica,sans-Serif" font-size="10.00">Ogre::D3D9HLSLProgramFactory</text>
</a>
</g>
</g>
<!-- Node0&#45;&gt;Node5 -->
<g id="edge6" class="edge">
<title>Node0&#45;&gt;Node5</title>
<path fill="none" stroke="midnightblue" d="M208.59,-264.32C229.58,-277.19 261.81,-295.45 292,-306.5 302.24,-310.25 313.42,-313.35 324.3,-315.9"/>
<polygon fill="midnightblue" stroke="midnightblue" points="210.39,-261.32 200.05,-259 206.68,-267.26 210.39,-261.32"/>
</g>
<!-- Node6 -->
<g id="node8" class="node">
<title>Node6</title>
<g id="a_node8"><a xlink:href="class_ogre_1_1_g_l_s_l_1_1_g_l_s_l_program_factory.html" target="_top" xlink:title="Factory class for GLSL programs.">
<polygon fill="none" stroke="black" points="293.5,-278 293.5,-297 470.5,-297 470.5,-278 293.5,-278"/>
<text text-anchor="middle" x="382" y="-285" font-family="Helvetica,sans-Serif" font-size="10.00">Ogre::GLSL::GLSLProgramFactory</text>
</a>
</g>
</g>
<!-- Node0&#45;&gt;Node6 -->
<g id="edge7" class="edge">
<title>Node0&#45;&gt;Node6</title>
<path fill="none" stroke="midnightblue" d="M244.61,-260.99C272.5,-266.41 305.4,-272.81 331.9,-277.96"/>
<polygon fill="midnightblue" stroke="midnightblue" points="245.06,-257.51 234.58,-259.04 243.73,-264.38 245.06,-257.51"/>
</g>
<!-- Node7 -->
<g id="node9" class="node">
<title>Node7</title>
<g id="a_node9"><a xlink:href="class_ogre_1_1_g_l_s_lang_program_factory.html" target="_top" xlink:title="Factory class for GLSLang programs.">
<polygon fill="none" stroke="black" points="299.5,-240 299.5,-259 464.5,-259 464.5,-240 299.5,-240"/>
<text text-anchor="middle" x="382" y="-247" font-family="Helvetica,sans-Serif" font-size="10.00">Ogre::GLSLangProgramFactory</text>
</a>
</g>
</g>
<!-- Node0&#45;&gt;Node7 -->
<g id="edge8" class="edge">
<title>Node0&#45;&gt;Node7</title>
<path fill="none" stroke="midnightblue" d="M266.38,-249.5C277.22,-249.5 288.36,-249.5 299.22,-249.5"/>
<polygon fill="midnightblue" stroke="midnightblue" points="266.08,-246 256.08,-249.5 266.08,-253 266.08,-246"/>
</g>
<!-- Node8 -->
<g id="node10" class="node">
<title>Node8</title>
<g id="a_node10"><a xlink:href="class_ogre_1_1_g_l_s_l_e_s_cg_program_factory.html" target="_top" xlink:title="Factory class for GLSL ES programs.">
<polygon fill="none" stroke="black" points="296,-202 296,-221 468,-221 468,-202 296,-202"/>
<text text-anchor="middle" x="382" y="-209" font-family="Helvetica,sans-Serif" font-size="10.00">Ogre::GLSLESCgProgramFactory</text>
</a>
</g>
</g>
<!-- Node0&#45;&gt;Node8 -->
<g id="edge9" class="edge">
<title>Node0&#45;&gt;Node8</title>
<path fill="none" stroke="midnightblue" d="M244.61,-238.01C272.5,-232.59 305.4,-226.19 331.9,-221.04"/>
<polygon fill="midnightblue" stroke="midnightblue" points="243.73,-234.62 234.58,-239.96 245.06,-241.49 243.73,-234.62"/>
</g>
<!-- Node9 -->
<g id="node11" class="node">
<title>Node9</title>
<g id="a_node11"><a xlink:href="class_ogre_1_1_g_l_s_l_e_s_program_factory.html" target="_top" xlink:title="Factory class for GLSL ES programs.">
<polygon fill="none" stroke="black" points="302.5,-164 302.5,-183 461.5,-183 461.5,-164 302.5,-164"/>
<text text-anchor="middle" x="382" y="-171" font-family="Helvetica,sans-Serif" font-size="10.00">Ogre::GLSLESProgramFactory</text>
</a>
</g>
</g>
<!-- Node0&#45;&gt;Node9 -->
<g id="edge10" class="edge">
<title>Node0&#45;&gt;Node9</title>
<path fill="none" stroke="midnightblue" d="M244.34,-236.36C248.39,-234.64 252.33,-232.69 256,-230.5 275.98,-218.58 271.71,-203.89 292,-192.5 298.89,-188.63 306.48,-185.55 314.24,-183.1"/>
<polygon fill="midnightblue" stroke="midnightblue" points="242.83,-233.19 234.71,-239.99 245.3,-239.74 242.83,-233.19"/>
</g>
<!-- Node10 -->
<g id="node12" class="node">
<title>Node10</title>
<g id="a_node12"><a xlink:href="class_ogre_1_1_g_l_s_l_shader_factory.html" target="_top" xlink:title="Factory class for GLSL shaders.">
<polygon fill="none" stroke="black" points="312,-126 312,-145 452,-145 452,-126 312,-126"/>
<text text-anchor="middle" x="382" y="-133" font-family="Helvetica,sans-Serif" font-size="10.00">Ogre::GLSLShaderFactory</text>
</a>
</g>
</g>
<!-- Node0&#45;&gt;Node10 -->
<g id="edge11" class="edge">
<title>Node0&#45;&gt;Node10</title>
<path fill="none" stroke="midnightblue" d="M249.49,-235.18C251.77,-233.76 253.96,-232.21 256,-230.5 284.69,-206.54 262.69,-177.69 292,-154.5 297.95,-149.79 304.79,-146.19 311.99,-143.43"/>
<polygon fill="midnightblue" stroke="midnightblue" points="247.51,-232.26 240.24,-239.98 250.73,-238.47 247.51,-232.26"/>
</g>
<!-- Node11 -->
<g id="node13" class="node">
<title>Node11</title>
<g id="a_node13"><a xlink:href="class_ogre_1_1_metal_program_factory.html" target="_top" xlink:title="Factory class for Metal programs.">
<polygon fill="none" stroke="black" points="306.5,-88 306.5,-107 457.5,-107 457.5,-88 306.5,-88"/>
<text text-anchor="middle" x="382" y="-95" font-family="Helvetica,sans-Serif" font-size="10.00">Ogre::MetalProgramFactory</text>
</a>
</g>
</g>
<!-- Node0&#45;&gt;Node11 -->
<g id="edge12" class="edge">
<title>Node0&#45;&gt;Node11</title>
<path fill="none" stroke="midnightblue" d="M251.19,-234.53C252.88,-233.29 254.49,-231.95 256,-230.5 294.36,-193.74 252.68,-152.23 292,-116.5 296.21,-112.67 300.99,-109.55 306.11,-107"/>
<polygon fill="midnightblue" stroke="midnightblue" points="248.96,-231.79 242.18,-239.93 252.56,-237.79 248.96,-231.79"/>
</g>
<!-- Node12 -->
<g id="node14" class="node">
<title>Node12</title>
<g id="a_node14"><a xlink:href="class_ogre_1_1_s_p_i_r_v_shader_factory.html" target="_top" xlink:title=" ">
<polygon fill="none" stroke="black" points="310,-50 310,-69 454,-69 454,-50 310,-50"/>
<text text-anchor="middle" x="382" y="-57" font-family="Helvetica,sans-Serif" font-size="10.00">Ogre::SPIRVShaderFactory</text>
</a>
</g>
</g>
<!-- Node0&#45;&gt;Node12 -->
<g id="edge13" class="edge">
<title>Node0&#45;&gt;Node12</title>
<path fill="none" stroke="midnightblue" d="M251.95,-234.18C253.37,-233.04 254.73,-231.81 256,-230.5 304.33,-180.66 242.37,-127.04 292,-78.5 297.08,-73.53 303.13,-69.72 309.64,-66.81"/>
<polygon fill="midnightblue" stroke="midnightblue" points="249.65,-231.5 243.16,-239.88 253.46,-237.38 249.65,-231.5"/>
</g>
<!-- Node13 -->
<g id="node15" class="node">
<title>Node13</title>
<g id="a_node15"><a xlink:href="class_ogre_1_1_unified_high_level_gpu_program_factory.html" target="_top" xlink:title="Factory class for Unified programs.">
<polygon fill="none" stroke="black" points="307.5,-0.5 307.5,-30.5 456.5,-30.5 456.5,-0.5 307.5,-0.5"/>
<text text-anchor="start" x="315.5" y="-18.5" font-family="Helvetica,sans-Serif" font-size="10.00">Ogre::UnifiedHighLevelGpu</text>
<text text-anchor="middle" x="382" y="-7.5" font-family="Helvetica,sans-Serif" font-size="10.00">ProgramFactory</text>
</a>
</g>
</g>
<!-- Node0&#45;&gt;Node13 -->
<g id="edge14" class="edge">
<title>Node0&#45;&gt;Node13</title>
<path fill="none" stroke="midnightblue" d="M252.13,-234.18C253.49,-233.03 254.79,-231.81 256,-230.5 314.42,-167.46 233.91,-103.85 292,-40.5 296.34,-35.77 301.49,-31.9 307.11,-28.75"/>
<polygon fill="midnightblue" stroke="midnightblue" points="250.02,-231.38 243.68,-239.87 253.93,-237.19 250.02,-231.38"/>
</g>
</g>
</svg>
